<?xml version="1.0" encoding="UTF-8" ?>
<!DOCTYPE svg PUBLIC "-//W3C//DTD SVG 1.1//EN" "http://www.w3.org/Graphics/SVG/1.1/DTD/svg11.dtd">
<svg width="256pt" height="256pt" viewBox="0 0 256 256" version="1.1" xmlns="http://www.w3.org/2000/svg">
<path fill="#0a0000" d=" M 0.00 0.00 L 256.00 0.00 L 256.00 144.68 C 254.29 145.18 252.60 145.73 250.91 146.29 C 246.44 140.22 243.78 132.89 246.43 125.53 C 247.75 122.97 247.88 114.75 242.86 117.52 C 241.42 118.14 240.08 118.94 238.76 119.75 C 238.28 120.07 237.32 120.69 236.85 121.00 C 235.97 121.62 235.12 122.27 234.25 122.89 C 235.05 117.89 227.54 117.16 225.69 112.89 C 224.85 111.54 223.99 110.21 223.18 108.85 C 219.01 101.34 214.65 93.79 212.55 85.40 C 210.48 81.52 215.28 82.83 218.24 82.86 C 222.24 84.10 223.84 81.42 224.27 77.83 C 224.79 79.34 225.30 80.86 226.00 82.30 C 228.49 84.35 230.49 84.36 231.98 82.31 C 230.79 74.46 235.29 71.79 241.83 69.88 C 246.59 67.15 249.35 61.40 248.90 55.96 C 247.34 50.57 252.66 47.79 253.53 43.10 C 254.90 40.70 254.85 38.63 253.38 36.88 C 251.83 33.09 249.22 29.07 252.93 25.84 C 253.64 19.66 246.06 20.93 243.11 24.10 C 243.35 23.64 243.82 22.74 244.06 22.29 C 244.97 20.56 245.59 18.69 246.17 16.83 C 248.89 7.69 229.89 14.63 233.01 3.63 C 230.16 1.51 228.24 1.62 227.25 3.94 C 229.70 13.35 216.21 10.83 215.02 18.99 C 209.05 29.38 217.37 42.02 228.24 44.38 C 221.88 45.48 215.21 42.58 209.11 45.35 C 202.58 42.83 199.41 36.05 194.30 31.70 C 183.03 17.66 162.63 18.55 146.53 19.43 C 124.90 20.88 106.03 32.06 87.72 42.69 C 65.72 55.39 48.85 75.38 36.01 97.02 C 34.95 99.89 32.47 101.52 30.28 103.38 C 30.69 106.09 31.32 108.90 27.79 109.55 C 27.33 109.41 26.42 109.12 25.97 108.97 C 25.04 108.27 24.08 107.59 23.13 106.93 C 22.68 105.62 21.55 104.71 20.14 104.77 C 19.63 104.56 18.63 104.14 18.13 103.93 C 14.37 100.63 9.50 97.34 8.82 91.93 C 7.82 86.58 5.21 91.57 7.47 94.98 C 9.24 99.14 11.51 103.12 14.95 106.13 C 14.86 108.08 16.26 109.65 18.20 109.79 C 19.91 114.68 18.04 113.81 15.06 110.98 C 16.99 117.90 15.52 125.88 20.28 131.80 C 18.83 139.62 19.20 150.35 13.95 156.02 C 5.66 147.15 9.63 131.95 6.94 120.75 C 3.87 124.55 2.38 129.29 0.00 133.50 L 0.00 0.00 Z" />
<path fill="#643801" d=" M 227.25 3.94 C 228.24 1.62 230.16 1.51 233.01 3.63 C 231.14 4.21 229.16 4.35 227.25 3.94 Z" />
<path fill="#fba805" d=" M 227.25 3.94 C 229.16 4.35 231.14 4.21 233.01 3.63 C 229.89 14.63 248.89 7.69 246.17 16.83 C 241.91 21.97 236.53 15.69 231.15 17.55 C 225.42 15.16 217.06 25.98 223.73 29.25 C 228.30 35.79 237.22 36.68 242.99 41.94 C 246.80 35.56 237.96 30.41 232.65 29.49 C 226.00 30.13 229.68 18.13 235.03 19.82 C 237.67 21.34 240.33 22.85 243.11 24.10 C 246.06 20.93 253.64 19.66 252.93 25.84 C 249.22 29.07 251.83 33.09 253.38 36.88 C 253.20 37.31 252.83 38.19 252.64 38.62 C 250.70 44.22 249.39 50.75 242.98 52.94 C 232.24 59.40 218.01 45.08 208.82 55.81 C 206.41 59.33 202.16 58.61 198.46 59.06 C 198.73 57.65 198.98 56.20 199.61 54.90 L 200.49 55.03 C 203.60 54.88 205.54 51.63 208.19 50.18 C 214.11 46.11 221.60 49.05 228.26 48.50 C 239.40 51.03 233.91 43.30 228.24 44.38 C 217.37 42.02 209.05 29.38 215.02 18.99 C 216.21 10.83 229.70 13.35 227.25 3.94 Z" />
<path fill="#ef8900" d=" M 223.73 29.25 C 217.06 25.98 225.42 15.16 231.15 17.55 C 236.53 15.69 241.91 21.97 246.17 16.83 C 245.59 18.69 244.97 20.56 244.06 22.29 C 240.97 21.23 237.96 19.96 234.86 18.98 C 228.24 15.99 221.01 22.80 223.73 29.25 Z" />
<path fill="#1e0000" d=" M 146.53 19.43 C 162.63 18.55 183.03 17.66 194.30 31.70 C 199.41 36.05 202.58 42.83 209.11 45.35 C 205.77 48.31 201.48 50.67 199.61 54.90 C 198.98 56.20 198.73 57.65 198.46 59.06 C 197.32 64.60 200.48 69.37 202.83 74.04 C 199.44 77.96 196.05 82.54 202.17 85.11 C 205.62 91.78 202.64 100.47 203.40 108.05 C 202.78 107.84 201.53 107.43 200.91 107.22 C 200.03 105.16 199.18 103.08 198.77 100.86 C 200.22 92.79 192.61 100.44 196.74 104.31 C 188.79 94.68 185.46 81.08 179.20 69.85 C 173.49 56.26 159.42 46.80 144.95 45.15 C 109.01 50.53 82.92 78.92 63.45 107.47 C 63.31 109.11 63.03 112.41 62.89 114.06 C 59.13 111.50 56.04 108.18 52.96 104.87 C 53.35 106.20 53.81 107.52 54.27 108.83 C 53.61 109.59 52.94 110.35 52.27 111.10 C 50.63 107.55 46.12 110.26 43.38 109.52 C 40.02 108.39 37.37 105.81 33.93 104.87 C 35.91 107.34 38.03 109.70 40.26 111.95 C 36.29 115.27 41.58 123.37 35.16 123.13 C 35.43 119.54 35.66 115.95 35.85 112.36 C 32.96 112.00 30.36 110.79 27.79 109.55 C 31.32 108.90 30.69 106.09 30.28 103.38 C 32.47 101.52 34.95 99.89 36.01 97.02 C 48.85 75.38 65.72 55.39 87.72 42.69 C 106.03 32.06 124.90 20.88 146.53 19.43 Z" />
<path fill="#120700" d=" M 223.73 29.25 C 221.01 22.80 228.24 15.99 234.86 18.98 L 235.03 19.82 C 229.68 18.13 226.00 30.13 232.65 29.49 C 237.96 30.41 246.80 35.56 242.99 41.94 C 237.22 36.68 228.30 35.79 223.73 29.25 Z" />
<path fill="#542e01" d=" M 234.86 18.98 C 237.96 19.96 240.97 21.23 244.06 22.29 C 243.82 22.74 243.35 23.64 243.11 24.10 C 240.33 22.85 237.67 21.34 235.03 19.82 L 234.86 18.98 Z" />
<path fill="#955f07" d=" M 253.38 36.88 C 254.85 38.63 254.90 40.70 253.53 43.10 C 252.89 41.67 252.60 40.18 252.64 38.62 C 252.83 38.19 253.20 37.31 253.38 36.88 Z" />
<path fill="#f88d01" d=" M 242.98 52.94 C 249.39 50.75 250.70 44.22 252.64 38.62 C 252.60 40.18 252.89 41.67 253.53 43.10 C 252.66 47.79 247.34 50.57 248.90 55.96 C 249.35 61.40 246.59 67.15 241.83 69.88 C 235.29 71.79 230.79 74.46 231.98 82.31 C 230.03 81.72 227.95 81.69 226.00 82.30 C 224.80 79.83 227.94 73.68 224.49 72.88 C 224.42 74.53 224.37 76.18 224.27 77.83 C 223.84 81.42 222.24 84.10 218.24 82.86 C 215.21 81.66 212.24 80.29 209.13 79.31 C 206.82 81.26 205.60 85.01 202.17 85.11 C 196.05 82.54 199.44 77.96 202.83 74.04 C 200.48 69.37 197.32 64.60 198.46 59.06 C 202.16 58.61 206.41 59.33 208.82 55.81 C 218.01 45.08 232.24 59.40 242.98 52.94 Z" />
<path fill="#ef8a01" d=" M 209.11 45.35 C 215.21 42.58 221.88 45.48 228.24 44.38 C 233.91 43.30 239.40 51.03 228.26 48.50 C 218.77 42.82 206.54 46.04 200.49 55.03 L 199.61 54.90 C 201.48 50.67 205.77 48.31 209.11 45.35 Z" />
<path fill="#310101" d=" M 144.95 45.15 C 159.42 46.80 173.49 56.26 179.20 69.85 C 185.46 81.08 188.79 94.68 196.74 104.31 C 192.61 100.44 200.22 92.79 198.77 100.86 C 197.10 108.21 199.18 115.03 205.86 119.25 C 206.92 119.77 208.05 120.18 209.17 120.60 C 204.01 120.34 207.07 132.25 202.92 127.13 C 200.76 124.31 202.44 129.77 202.85 131.02 C 204.70 135.80 207.91 139.91 210.71 144.17 C 211.86 146.41 214.82 146.19 216.84 147.24 C 220.44 157.13 217.94 166.94 216.02 176.74 C 215.05 181.41 214.50 186.27 212.33 190.59 C 199.83 183.78 208.61 165.86 202.16 155.06 C 205.85 146.49 198.85 140.16 196.36 132.71 C 196.38 127.83 199.03 123.18 199.05 118.22 C 194.10 120.11 190.13 116.04 186.01 113.93 C 186.84 115.24 187.72 116.53 188.62 117.80 C 189.00 119.03 189.37 120.26 189.71 121.50 C 186.83 121.44 185.30 118.33 183.08 116.91 C 177.88 112.36 172.50 107.84 168.90 101.86 C 169.54 107.85 174.66 112.09 177.93 116.88 C 177.92 118.72 177.90 122.40 177.90 124.24 C 176.62 122.77 175.34 121.31 174.03 119.88 C 173.22 118.30 172.46 116.69 171.78 115.05 C 170.64 110.34 167.20 113.35 170.82 116.08 C 171.35 117.62 171.91 119.16 172.17 120.77 C 168.76 130.39 174.45 137.91 182.38 141.99 C 178.21 149.41 171.95 155.65 170.25 164.28 C 166.79 167.78 166.98 158.78 165.54 157.36 C 163.25 152.79 170.17 151.85 171.23 148.24 C 176.23 139.09 163.56 133.45 166.69 124.67 C 167.34 120.71 161.40 114.56 158.14 119.10 C 157.43 118.37 156.74 117.62 156.06 116.86 C 152.41 112.15 153.38 115.59 154.67 119.47 C 150.80 119.14 148.69 114.73 145.92 112.29 C 148.65 108.57 145.03 105.70 143.29 102.63 C 142.61 94.68 143.38 86.69 142.80 78.75 C 138.10 83.28 138.34 91.86 134.93 95.99 C 128.29 91.15 118.90 87.69 111.86 91.43 C 114.92 88.07 108.46 83.59 109.45 89.13 C 109.56 90.35 109.65 91.56 109.71 92.78 C 108.85 95.45 108.21 98.16 107.78 100.94 C 100.76 99.33 101.31 90.52 96.10 86.67 C 95.97 95.92 98.30 105.94 92.90 114.22 C 89.80 111.89 86.96 109.22 83.80 106.96 C 85.52 111.58 91.06 114.80 89.64 120.28 C 87.36 121.12 86.30 123.31 86.08 125.61 C 88.59 125.71 89.36 126.83 87.97 128.94 C 85.04 129.88 83.67 132.46 83.05 135.30 C 78.55 131.42 82.00 124.80 79.19 120.82 C 78.94 120.55 78.44 120.02 78.19 119.75 C 76.42 118.00 73.43 113.84 73.79 118.92 C 71.40 117.42 69.23 115.62 66.95 113.98 C 67.62 116.05 68.46 118.07 69.01 120.18 C 67.11 119.49 65.49 118.26 63.87 117.08 C 63.56 116.07 63.23 115.06 62.89 114.06 C 63.03 112.41 63.31 109.11 63.45 107.47 C 82.92 78.92 109.01 50.53 144.95 45.15 Z" />
<path fill="#ffcc22" d=" M 200.49 55.03 C 206.54 46.04 218.77 42.82 228.26 48.50 C 221.60 49.05 214.11 46.11 208.19 50.18 C 205.54 51.63 203.60 54.88 200.49 55.03 Z" />
<path fill="#8b4a00" d=" M 215.19 53.93 C 215.32 52.13 219.68 52.14 219.80 53.94 C 218.26 54.02 216.72 54.02 215.19 53.93 Z" />
<path fill="#180500" d=" M 212.89 68.05 C 206.12 66.88 208.30 53.82 215.19 53.93 C 216.72 54.02 218.26 54.02 219.80 53.94 C 226.25 54.65 232.41 57.20 239.00 57.13 C 237.88 60.19 235.22 62.97 231.80 63.08 C 229.93 62.96 228.05 62.96 226.19 63.08 C 222.29 63.59 216.28 56.52 214.71 62.74 C 213.93 64.44 213.40 66.25 212.89 68.05 Z" />
<path fill="#fdc21e" d=" M 214.71 62.74 C 222.11 61.98 231.31 68.67 238.14 62.01 C 235.24 70.13 224.36 68.03 218.31 64.67 C 215.13 61.43 214.03 71.00 212.89 68.05 C 213.40 66.25 213.93 64.44 214.71 62.74 Z" />
<path fill="#9a5400" d=" M 226.19 63.08 C 228.05 62.96 229.93 62.96 231.80 63.08 C 231.27 64.87 226.72 64.86 226.19 63.08 Z" />
<path fill="#ae6504" d=" M 224.49 72.88 C 227.94 73.68 224.80 79.83 226.00 82.30 C 225.30 80.86 224.79 79.34 224.27 77.83 C 224.37 76.18 224.42 74.53 224.49 72.88 Z" />
<path fill="#3e0201" d=" M 134.93 95.99 C 138.34 91.86 138.10 83.28 142.80 78.75 C 143.38 86.69 142.61 94.68 143.29 102.63 C 145.03 105.70 148.65 108.57 145.92 112.29 C 144.07 110.52 142.20 108.78 140.41 106.95 C 138.37 103.16 140.13 98.85 139.97 94.79 C 135.25 99.52 136.66 107.90 135.07 114.12 C 134.98 116.27 134.91 118.56 133.40 120.27 C 130.88 115.28 129.30 109.68 123.11 107.86 C 120.41 105.62 117.81 103.28 115.15 101.00 C 114.31 98.81 113.27 96.71 112.08 94.69 L 111.98 93.78 C 111.95 93.20 111.89 92.02 111.86 91.43 C 118.90 87.69 128.29 91.15 134.93 95.99 Z" />
<path fill="#290803" d=" M 209.13 79.31 C 212.24 80.29 215.21 81.66 218.24 82.86 C 215.28 82.83 210.48 81.52 212.55 85.40 C 214.65 93.79 219.01 101.34 223.18 108.85 C 221.91 108.18 220.57 107.64 219.13 107.50 C 214.91 103.93 218.62 110.24 219.82 112.14 C 224.07 117.84 222.67 125.23 223.14 131.90 C 222.33 131.26 221.53 130.62 220.74 129.97 C 219.90 124.05 216.00 129.94 216.33 123.71 C 216.19 121.68 215.76 119.71 213.32 119.80 C 218.22 114.81 209.59 113.06 206.01 111.91 C 205.71 111.70 205.10 111.27 204.80 111.05 C 204.35 110.04 203.86 109.05 203.40 108.05 C 202.64 100.47 205.62 91.78 202.17 85.11 C 205.60 85.01 206.82 81.26 209.13 79.31 Z" />
<path fill="#884800" d=" M 226.00 82.30 C 227.95 81.69 230.03 81.72 231.98 82.31 C 230.49 84.36 228.49 84.35 226.00 82.30 Z" />
<path fill="#520d05" d=" M 109.45 89.13 C 108.46 83.59 114.92 88.07 111.86 91.43 C 111.23 90.18 111.19 86.78 109.45 89.13 Z" />
<path fill="#450201" d=" M 96.10 86.67 C 101.31 90.52 100.76 99.33 107.78 100.94 C 108.21 98.16 108.85 95.45 109.71 92.78 C 109.75 93.36 109.85 94.51 109.90 95.08 C 109.92 99.53 112.24 103.49 114.55 107.14 C 114.86 107.62 115.48 108.59 115.79 109.08 C 118.42 113.76 122.50 118.18 121.04 124.08 C 119.30 122.78 117.72 121.28 116.01 119.94 C 117.71 128.23 120.34 136.22 124.10 143.81 C 124.39 146.78 124.81 149.75 124.92 152.74 C 122.96 159.63 126.45 168.91 120.37 174.22 C 114.82 154.06 105.46 134.83 103.34 113.67 C 102.75 110.86 102.37 107.74 100.22 105.62 C 100.14 108.47 99.97 114.18 99.89 117.03 C 98.25 117.05 96.61 117.08 94.97 117.07 C 94.28 116.12 93.59 115.17 92.90 114.22 C 98.30 105.94 95.97 95.92 96.10 86.67 Z" />
<path fill="#bf4f2d" d=" M 109.45 89.13 C 111.19 86.78 111.23 90.18 111.86 91.43 C 111.89 92.02 111.95 93.20 111.98 93.78 C 111.46 94.11 110.42 94.76 109.90 95.08 C 109.85 94.51 109.75 93.36 109.71 92.78 C 109.65 91.56 109.56 90.35 109.45 89.13 Z" />
<path fill="#642a1a" d=" M 7.47 94.98 C 5.21 91.57 7.82 86.58 8.82 91.93 C 8.37 92.94 7.92 93.96 7.47 94.98 Z" />
<path fill="#d05f36" d=" M 7.47 94.98 C 7.92 93.96 8.37 92.94 8.82 91.93 C 9.50 97.34 14.37 100.63 18.13 103.93 C 14.21 101.85 12.10 101.49 14.95 106.13 C 11.51 103.12 9.24 99.14 7.47 94.98 Z" />
<path fill="#f8a452" d=" M 109.90 95.08 C 110.42 94.76 111.46 94.11 111.98 93.78 L 112.08 94.69 C 111.99 97.19 112.82 99.76 115.15 101.00 C 117.81 103.28 120.41 105.62 123.11 107.86 C 129.92 112.59 133.60 121.54 130.60 129.48 C 126.62 134.49 134.89 145.66 139.05 138.86 C 142.90 137.71 143.60 143.12 140.72 144.82 C 135.91 144.62 131.12 144.25 126.33 143.73 C 123.65 138.72 120.83 133.62 119.75 127.98 C 121.78 133.62 123.15 127.09 124.54 124.53 C 126.89 116.48 120.26 110.14 115.15 104.96 C 115.00 105.51 114.70 106.59 114.55 107.14 C 112.24 103.49 109.92 99.53 109.90 95.08 Z" />
<path fill="#c0461a" d=" M 112.08 94.69 C 113.27 96.71 114.31 98.81 115.15 101.00 C 112.82 99.76 111.99 97.19 112.08 94.69 Z" />
<path fill="#4e0703" d=" M 135.07 114.12 C 136.66 107.90 135.25 99.52 139.97 94.79 C 140.13 98.85 138.37 103.16 140.41 106.95 C 143.40 111.97 145.36 117.30 145.36 123.19 C 144.88 123.19 143.92 123.19 143.44 123.19 C 142.59 113.14 139.59 127.97 142.70 131.33 C 147.57 136.13 151.10 143.98 158.16 145.64 C 152.96 155.20 161.01 169.09 152.93 176.55 C 154.40 171.09 147.31 167.06 149.35 173.81 C 147.62 177.68 146.71 183.73 143.11 185.84 C 140.69 175.59 139.42 165.04 136.07 155.00 C 135.42 152.30 132.92 145.73 138.22 146.61 C 140.79 147.55 142.82 149.45 145.03 150.99 C 143.76 146.23 146.97 135.33 139.05 138.86 C 137.34 138.83 135.43 139.19 133.98 138.03 C 135.26 129.35 136.84 120.66 137.03 111.87 C 136.35 112.60 135.70 113.35 135.07 114.12 Z" />
<path fill="#df9165" d=" M 205.86 119.25 C 199.18 115.03 197.10 108.21 198.77 100.86 C 199.18 103.08 200.03 105.16 200.91 107.22 C 201.04 109.37 202.69 110.89 204.80 111.05 C 205.10 111.27 205.71 111.70 206.01 111.91 C 211.69 114.34 217.36 120.68 205.86 119.25 Z" />
<path fill="#fbb461" d=" M 14.95 106.13 C 12.10 101.49 14.21 101.85 18.13 103.93 C 18.63 104.14 19.63 104.56 20.14 104.77 C 20.07 106.39 21.63 107.42 23.13 106.93 C 24.08 107.59 25.04 108.27 25.97 108.97 C 31.09 113.22 37.40 115.17 34.23 124.03 C 42.31 126.53 40.17 116.60 40.26 111.95 C 40.95 107.11 56.42 111.12 50.90 118.76 C 47.99 125.19 47.54 132.33 49.00 139.18 C 45.60 136.18 43.53 131.30 38.89 130.02 C 34.41 129.12 33.17 134.64 32.66 137.94 C 27.06 131.87 15.52 126.99 20.15 116.84 C 22.32 114.38 19.79 111.70 18.20 109.79 C 18.04 107.94 16.75 106.51 14.95 106.13 Z" />
<path fill="#cd7354" d=" M 168.90 101.86 C 172.50 107.84 177.88 112.36 183.08 116.91 C 182.60 116.92 181.63 116.94 181.14 116.95 C 179.82 116.36 177.36 113.77 177.93 116.88 C 174.66 112.09 169.54 107.85 168.90 101.86 Z" />
<path fill="#c2511d" d=" M 20.14 104.77 C 21.55 104.71 22.68 105.62 23.13 106.93 C 21.63 107.42 20.07 106.39 20.14 104.77 Z" />
<path fill="#d85f24" d=" M 33.93 104.87 C 37.37 105.81 40.02 108.39 43.38 109.52 C 46.12 110.26 50.63 107.55 52.27 111.10 C 51.87 115.62 52.97 120.24 51.81 124.70 C 49.47 134.05 60.32 140.48 59.12 149.92 C 56.48 148.81 53.98 147.32 51.17 146.67 C 43.18 146.58 44.04 136.32 38.86 131.99 C 46.25 133.54 44.85 147.86 55.05 145.82 C 59.06 144.74 53.98 139.27 53.15 136.88 C 48.58 131.72 50.60 124.89 50.90 118.76 C 56.42 111.12 40.95 107.11 40.26 111.95 C 38.03 109.70 35.91 107.34 33.93 104.87 Z" />
<path fill="#b7502e" d=" M 52.96 104.87 C 56.04 108.18 59.13 111.50 62.89 114.06 C 63.23 115.06 63.56 116.07 63.87 117.08 C 62.31 116.05 60.93 114.19 58.84 114.59 C 57.18 112.78 55.77 110.77 54.27 108.83 C 53.81 107.52 53.35 106.20 52.96 104.87 Z" />
<path fill="#fac597" d=" M 115.15 104.96 C 120.26 110.14 126.89 116.48 124.54 124.53 C 123.15 127.09 121.78 133.62 119.75 127.98 C 116.94 123.21 127.70 125.54 122.93 119.12 C 121.75 115.14 119.41 111.24 115.79 109.08 C 115.48 108.59 114.86 107.62 114.55 107.14 C 114.70 106.59 115.00 105.51 115.15 104.96 Z" />
<path fill="#c8541e" d=" M 14.95 106.13 C 16.75 106.51 18.04 107.94 18.20 109.79 C 16.26 109.65 14.86 108.08 14.95 106.13 Z" />
<path fill="#5c0803" d=" M 100.22 105.62 C 102.37 107.74 102.75 110.86 103.34 113.67 C 105.46 134.83 114.82 154.06 120.37 174.22 C 126.45 168.91 122.96 159.63 124.92 152.74 C 126.91 164.05 126.38 176.21 121.78 186.86 C 114.43 185.30 120.79 171.53 114.09 166.73 C 114.83 172.07 114.98 177.44 113.56 182.69 C 117.99 187.78 115.49 195.36 115.63 201.48 C 114.54 204.85 115.99 213.95 110.04 213.05 C 109.06 205.50 110.72 198.18 111.98 190.82 C 108.16 193.23 107.16 197.99 107.04 202.19 C 106.78 203.56 106.47 204.93 106.17 206.30 C 99.42 205.26 99.24 195.46 98.31 190.15 C 101.16 178.90 103.94 167.32 103.23 155.63 C 103.49 153.21 101.48 148.91 104.86 148.89 C 107.66 152.20 105.71 143.25 106.53 143.49 C 103.07 137.11 95.17 128.39 101.83 121.84 C 102.49 119.82 98.40 120.70 99.89 117.03 C 99.97 114.18 100.14 108.47 100.22 105.62 Z" />
<path fill="#b87e6f" d=" M 219.82 112.14 C 218.62 110.24 214.91 103.93 219.13 107.50 C 219.68 108.65 220.25 109.79 220.82 110.93 C 220.57 111.23 220.07 111.84 219.82 112.14 Z" />
<path fill="#d76026" d=" M 83.80 106.96 C 86.96 109.22 89.80 111.89 92.90 114.22 C 93.59 115.17 94.28 116.12 94.97 117.07 C 93.09 116.76 89.15 115.32 92.20 117.99 C 91.85 120.52 90.81 122.86 90.15 125.31 C 87.35 133.85 95.45 140.22 101.90 143.95 C 104.59 138.09 94.44 131.50 97.74 124.71 C 99.57 121.89 98.38 117.86 94.97 117.07 C 96.61 117.08 98.25 117.05 99.89 117.03 C 98.40 120.70 102.49 119.82 101.83 121.84 C 95.17 128.39 103.07 137.11 106.53 143.49 C 105.71 143.25 107.66 152.20 104.86 148.89 C 103.65 147.91 102.46 146.92 101.19 146.03 C 100.73 145.71 99.80 145.08 99.34 144.76 C 94.57 141.22 90.30 137.08 85.88 133.14 C 89.98 135.07 88.59 131.64 87.97 128.94 C 89.36 126.83 88.59 125.71 86.08 125.61 C 86.30 123.31 87.36 121.12 89.64 120.28 C 91.06 114.80 85.52 111.58 83.80 106.96 Z" />
<path fill="#d37045" d=" M 145.36 123.19 C 145.36 117.30 143.40 111.97 140.41 106.95 C 142.20 108.78 144.07 110.52 145.92 112.29 C 148.69 114.73 150.80 119.14 154.67 119.47 C 154.73 119.92 154.83 120.83 154.89 121.28 C 152.95 120.63 151.09 119.80 149.28 118.88 C 148.30 117.49 147.33 116.08 146.22 114.79 C 145.87 117.54 149.10 122.88 145.36 123.19 Z" />
<path fill="#b73f12" d=" M 200.91 107.22 C 201.53 107.43 202.78 107.84 203.40 108.05 C 203.86 109.05 204.35 110.04 204.80 111.05 C 202.69 110.89 201.04 109.37 200.91 107.22 Z" />
<path fill="#651e0c" d=" M 219.13 107.50 C 220.57 107.64 221.91 108.18 223.18 108.85 C 223.99 110.21 224.85 111.54 225.69 112.89 C 225.45 114.08 225.22 115.28 224.96 116.48 C 223.54 114.66 222.15 112.81 220.82 110.93 C 220.25 109.79 219.68 108.65 219.13 107.50 Z" />
<path fill="#dc6325" d=" M 123.11 107.86 C 129.30 109.68 130.88 115.28 133.40 120.27 C 134.96 126.21 127.70 133.37 133.98 138.03 C 135.43 139.19 137.34 138.83 139.05 138.86 C 134.89 145.66 126.62 134.49 130.60 129.48 C 133.60 121.54 129.92 112.59 123.11 107.86 Z" />
<path fill="#cf5f28" d=" M 25.97 108.97 C 26.42 109.12 27.33 109.41 27.79 109.55 C 30.36 110.79 32.96 112.00 35.85 112.36 C 35.66 115.95 35.43 119.54 35.16 123.13 C 41.58 123.37 36.29 115.27 40.26 111.95 C 40.17 116.60 42.31 126.53 34.23 124.03 C 37.40 115.17 31.09 113.22 25.97 108.97 Z" />
<path fill="#3d0502" d=" M 54.27 108.83 C 55.77 110.77 57.18 112.78 58.84 114.59 C 59.42 117.76 59.49 120.99 58.88 124.16 C 57.44 121.74 54.57 113.03 56.01 123.96 C 53.75 133.51 64.17 137.64 68.55 144.47 C 72.37 146.12 76.71 146.58 80.27 148.84 C 85.37 152.93 76.37 159.24 72.79 155.13 C 72.74 158.87 73.45 162.53 73.91 166.21 C 69.58 162.62 72.04 155.56 68.18 151.61 C 67.81 158.19 67.35 164.96 69.84 171.24 C 69.58 176.53 63.13 182.82 58.07 178.30 C 56.75 181.45 57.46 186.16 54.17 187.97 C 52.38 185.95 51.17 183.51 49.95 181.13 C 48.72 174.93 47.00 168.83 45.27 162.75 C 46.30 158.03 45.14 147.86 51.17 146.67 C 53.98 147.32 56.48 148.81 59.12 149.92 C 60.32 140.48 49.47 134.05 51.81 124.70 C 52.97 120.24 51.87 115.62 52.27 111.10 C 52.94 110.35 53.61 109.59 54.27 108.83 Z" />
<path fill="#d75f25" d=" M 115.79 109.08 C 119.41 111.24 121.75 115.14 122.93 119.12 C 127.70 125.54 116.94 123.21 119.75 127.98 C 120.83 133.62 123.65 138.72 126.33 143.73 C 131.12 144.25 135.91 144.62 140.72 144.82 C 143.60 143.12 142.90 137.71 139.05 138.86 C 146.97 135.33 143.76 146.23 145.03 150.99 C 142.82 149.45 140.79 147.55 138.22 146.61 C 136.51 146.13 134.74 145.94 132.99 145.69 C 132.02 145.57 131.01 145.28 130.05 145.60 C 127.38 146.51 124.42 147.68 124.10 143.81 C 120.34 136.22 117.71 128.23 116.01 119.94 C 117.72 121.28 119.30 122.78 121.04 124.08 C 122.50 118.18 118.42 113.76 115.79 109.08 Z" />
<path fill="#c9551e" d=" M 18.20 109.79 C 19.79 111.70 22.32 114.38 20.15 116.84 C 18.38 115.25 15.16 111.02 17.96 119.96 C 16.02 130.21 27.91 133.71 31.11 141.90 C 32.08 147.59 43.35 145.13 39.15 139.82 C 38.21 138.01 34.41 132.14 37.81 131.98 C 37.66 137.40 42.77 141.07 43.49 146.15 C 36.81 147.13 29.86 148.46 28.19 140.75 C 26.54 136.98 23.39 134.31 20.28 131.80 C 15.52 125.88 16.99 117.90 15.06 110.98 C 18.04 113.81 19.91 114.68 18.20 109.79 Z" />
<path fill="#f6d2b8" d=" M 219.82 112.14 C 220.07 111.84 220.57 111.23 220.82 110.93 C 222.15 112.81 223.54 114.66 224.96 116.48 C 225.18 116.87 225.60 117.64 225.81 118.03 C 226.61 123.81 229.33 130.98 224.42 135.50 C 224.01 134.29 223.58 133.09 223.14 131.90 C 222.67 125.23 224.07 117.84 219.82 112.14 Z" />
<path fill="#701f08" d=" M 135.07 114.12 C 135.70 113.35 136.35 112.60 137.03 111.87 C 136.84 120.66 135.26 129.35 133.98 138.03 C 127.70 133.37 134.96 126.21 133.40 120.27 C 134.91 118.56 134.98 116.27 135.07 114.12 Z" />
<path fill="#7d473e" d=" M 170.82 116.08 C 167.20 113.35 170.64 110.34 171.78 115.05 C 171.54 115.31 171.06 115.82 170.82 116.08 Z" />
<path fill="#cf5820" d=" M 206.01 111.91 C 209.59 113.06 218.22 114.81 213.32 119.80 C 215.76 119.71 216.19 121.68 216.33 123.71 C 213.69 132.42 220.33 139.77 219.26 148.18 C 218.65 147.94 217.44 147.47 216.84 147.24 C 214.82 146.19 211.86 146.41 210.71 144.17 C 212.91 144.08 219.04 146.24 217.19 141.95 C 212.14 136.20 220.12 122.47 211.07 121.15 C 210.59 121.01 209.64 120.74 209.17 120.60 C 208.05 120.18 206.92 119.77 205.86 119.25 C 217.36 120.68 211.69 114.34 206.01 111.91 Z" />
<path fill="#d35e24" d=" M 224.96 116.48 C 225.22 115.28 225.45 114.08 225.69 112.89 C 227.54 117.16 235.05 117.89 234.25 122.89 C 235.12 122.27 235.97 121.62 236.85 121.00 C 236.55 124.47 236.50 128.01 235.21 131.30 C 235.00 129.83 234.59 126.87 234.38 125.40 C 231.56 131.86 234.43 138.29 238.29 143.62 C 237.15 146.34 227.66 148.88 225.54 142.84 L 225.65 142.05 C 227.87 143.55 230.20 145.95 232.92 143.96 C 236.58 142.18 232.79 138.46 232.12 135.88 C 229.52 131.21 234.21 126.07 232.68 121.33 C 230.62 120.05 228.57 116.91 225.81 118.03 C 225.60 117.64 225.18 116.87 224.96 116.48 Z" />
<path fill="#fab064" d=" M 58.84 114.59 C 60.93 114.19 62.31 116.05 63.87 117.08 C 65.27 123.95 71.61 118.36 76.04 119.94 C 76.05 123.38 79.51 132.92 74.08 131.04 C 73.19 127.61 72.97 123.11 68.23 123.53 C 62.78 123.44 68.47 137.45 61.05 133.01 C 53.89 127.56 65.55 120.79 58.84 114.59 Z" />
<path fill="#c65627" d=" M 66.95 113.98 C 69.23 115.62 71.40 117.42 73.79 118.92 C 73.43 113.84 76.42 118.00 78.19 119.75 C 77.65 119.80 76.58 119.89 76.04 119.94 C 71.61 118.36 65.27 123.95 63.87 117.08 C 65.49 118.26 67.11 119.49 69.01 120.18 C 68.46 118.07 67.62 116.05 66.95 113.98 Z" />
<path fill="#e8b9a1" d=" M 154.67 119.47 C 153.38 115.59 152.41 112.15 156.06 116.86 C 158.05 119.61 158.02 126.27 154.89 121.28 C 154.83 120.83 154.73 119.92 154.67 119.47 Z" />
<path fill="#de692a" d=" M 186.01 113.93 C 190.13 116.04 194.10 120.11 199.05 118.22 C 199.03 123.18 196.38 127.83 196.36 132.71 C 198.85 140.16 205.85 146.49 202.16 155.06 C 197.02 158.79 196.96 151.17 192.65 150.39 C 190.07 149.31 187.00 149.27 184.81 147.37 C 188.65 148.39 192.55 143.41 187.07 143.33 C 185.49 142.95 183.93 142.48 182.38 141.99 C 174.45 137.91 168.76 130.39 172.17 120.77 C 173.19 125.28 172.45 130.41 175.27 134.36 C 177.79 137.05 181.09 140.10 185.08 140.08 C 184.39 135.42 180.73 129.60 185.01 125.78 C 184.33 130.54 184.43 136.23 188.83 139.18 C 189.10 139.41 189.64 139.87 189.91 140.10 C 190.23 140.27 190.88 140.59 191.20 140.76 C 192.58 141.13 194.16 141.37 194.05 143.19 C 190.91 139.88 190.03 145.07 193.99 144.81 C 193.88 145.29 193.66 146.26 193.55 146.75 C 192.14 151.46 204.89 156.92 201.02 146.99 C 198.87 140.44 192.22 134.71 196.01 127.00 C 197.91 122.51 197.57 118.90 192.38 119.74 C 191.22 118.93 190.26 117.04 188.62 117.80 C 187.72 116.53 186.84 115.24 186.01 113.93 Z" />
<path fill="#f89b40" d=" M 17.96 119.96 C 15.16 111.02 18.38 115.25 20.15 116.84 C 15.52 126.99 27.06 131.87 32.66 137.94 C 33.17 134.64 34.41 129.12 38.89 130.02 C 43.53 131.30 45.60 136.18 49.00 139.18 C 47.54 132.33 47.99 125.19 50.90 118.76 C 50.60 124.89 48.58 131.72 53.15 136.88 C 53.98 139.27 59.06 144.74 55.05 145.82 C 44.85 147.86 46.25 133.54 38.86 131.99 L 37.81 131.98 C 34.41 132.14 38.21 138.01 39.15 139.82 C 43.35 145.13 32.08 147.59 31.11 141.90 C 27.91 133.71 16.02 130.21 17.96 119.96 Z" />
<path fill="#de6627" d=" M 58.84 114.59 C 65.55 120.79 53.89 127.56 61.05 133.01 C 65.07 136.45 67.48 142.40 72.91 143.89 C 75.31 138.01 64.07 132.83 67.67 125.70 C 68.07 131.76 72.41 136.45 75.71 141.23 C 74.80 146.87 87.65 150.14 83.88 141.16 C 79.88 135.06 77.94 128.18 79.19 120.82 C 82.00 124.80 78.55 131.42 83.05 135.30 C 87.32 139.15 88.18 150.33 80.27 148.84 C 76.71 146.58 72.37 146.12 68.55 144.47 C 64.17 137.64 53.75 133.51 56.01 123.96 C 54.57 113.03 57.44 121.74 58.88 124.16 C 59.49 120.99 59.42 117.76 58.84 114.59 Z" />
<path fill="#f7d1b2" d=" M 146.22 114.79 C 147.33 116.08 148.30 117.49 149.28 118.88 C 151.04 122.53 144.97 134.84 143.10 125.82 C 143.17 124.94 143.29 124.06 143.44 123.19 C 143.92 123.19 144.88 123.19 145.36 123.19 C 149.10 122.88 145.87 117.54 146.22 114.79 Z" />
<path fill="#f2ba95" d=" M 170.82 116.08 C 171.06 115.82 171.54 115.31 171.78 115.05 C 172.46 116.69 173.22 118.30 174.03 119.88 C 174.37 121.26 174.73 122.64 175.06 124.03 C 175.60 127.45 176.55 131.00 175.27 134.36 C 172.45 130.41 173.19 125.28 172.17 120.77 C 171.91 119.16 171.35 117.62 170.82 116.08 Z" />
<path fill="#fbdcc2" d=" M 177.93 116.88 C 177.36 113.77 179.82 116.36 181.14 116.95 C 181.28 120.54 184.22 126.39 179.17 127.25 C 178.30 124.21 182.02 118.77 177.93 116.88 Z" />
<path fill="#faa64f" d=" M 92.20 117.99 C 89.15 115.32 93.09 116.76 94.97 117.07 C 98.38 117.86 99.57 121.89 97.74 124.71 C 94.44 131.50 104.59 138.09 101.90 143.95 C 95.45 140.22 87.35 133.85 90.15 125.31 C 93.54 124.45 95.80 120.20 92.20 117.99 Z" />
<path fill="#f79d48" d=" M 156.06 116.86 C 156.74 117.62 157.43 118.37 158.14 119.10 C 167.53 118.49 163.32 129.63 166.76 135.26 C 169.01 137.92 173.17 147.15 167.08 146.94 C 165.65 146.42 163.35 145.84 163.14 144.09 C 167.15 145.13 166.85 139.48 162.88 141.13 C 160.28 135.96 156.49 131.09 156.76 124.94 C 155.72 125.20 154.72 125.55 153.75 125.98 C 151.23 131.38 157.51 136.56 158.99 141.95 C 158.43 145.88 154.68 142.27 153.41 140.60 C 149.86 135.85 142.23 132.73 143.10 125.82 C 144.97 134.84 151.04 122.53 149.28 118.88 C 151.09 119.80 152.95 120.63 154.89 121.28 C 158.02 126.27 158.05 119.61 156.06 116.86 Z" />
<path fill="#dc6426" d=" M 158.14 119.10 C 161.40 114.56 167.34 120.71 166.69 124.67 C 163.56 133.45 176.23 139.09 171.23 148.24 C 168.04 149.87 165.01 147.98 162.12 146.69 C 160.83 146.22 159.49 145.95 158.16 145.64 C 151.10 143.98 147.57 136.13 142.70 131.33 C 139.59 127.97 142.59 113.14 143.44 123.19 C 143.29 124.06 143.17 124.94 143.10 125.82 C 142.23 132.73 149.86 135.85 153.41 140.60 C 154.68 142.27 158.43 145.88 158.99 141.95 C 157.51 136.56 151.23 131.38 153.75 125.98 C 154.66 131.76 157.78 138.09 162.88 141.13 C 162.95 141.87 163.08 143.35 163.14 144.09 C 163.35 145.84 165.65 146.42 167.08 146.94 C 173.17 147.15 169.01 137.92 166.76 135.26 C 163.32 129.63 167.53 118.49 158.14 119.10 Z" />
<path fill="#f69d48" d=" M 177.93 116.88 C 182.02 118.77 178.30 124.21 179.17 127.25 C 184.22 126.39 181.28 120.54 181.14 116.95 C 181.63 116.94 182.60 116.92 183.08 116.91 C 185.30 118.33 186.83 121.44 189.71 121.50 C 189.87 126.08 194.50 122.75 192.38 119.74 C 197.57 118.90 197.91 122.51 196.01 127.00 C 192.22 134.71 198.87 140.44 201.02 146.99 C 204.89 156.92 192.14 151.46 193.55 146.75 C 198.22 149.69 197.72 141.24 194.28 144.05 L 194.05 143.19 C 194.16 141.37 192.58 141.13 191.20 140.76 C 194.32 136.48 190.27 130.97 190.77 126.10 C 185.20 127.47 192.78 135.70 189.91 140.10 C 189.64 139.87 189.10 139.41 188.83 139.18 C 188.57 137.51 188.27 135.84 187.99 134.17 C 186.55 132.43 190.31 123.51 185.94 125.44 L 185.01 125.78 C 180.73 129.60 184.39 135.42 185.08 140.08 C 181.09 140.10 177.79 137.05 175.27 134.36 C 176.55 131.00 175.60 127.45 175.06 124.03 C 175.89 124.04 178.30 126.17 177.90 124.24 C 177.90 122.40 177.92 118.72 177.93 116.88 Z" />
<path fill="#f6d9c6" d=" M 188.62 117.80 C 190.26 117.04 191.22 118.93 192.38 119.74 C 194.50 122.75 189.87 126.08 189.71 121.50 C 189.37 120.26 189.00 119.03 188.62 117.80 Z" />
<path fill="#f9a148" d=" M 225.81 118.03 C 228.57 116.91 230.62 120.05 232.68 121.33 C 234.21 126.07 229.52 131.21 232.12 135.88 C 232.79 138.46 236.58 142.18 232.92 143.96 C 230.20 145.95 227.87 143.55 225.65 142.05 C 223.20 139.81 220.95 137.28 219.68 134.18 C 221.21 134.62 223.52 138.13 224.42 135.50 C 229.33 130.98 226.61 123.81 225.81 118.03 Z" />
<path fill="#cc5720" d=" M 242.86 117.52 C 247.88 114.75 247.75 122.97 246.43 125.53 C 243.78 132.89 246.44 140.22 250.91 146.29 C 250.94 149.62 250.72 152.98 249.74 156.18 C 248.64 154.31 247.89 152.27 247.09 150.27 C 250.97 149.67 247.96 144.95 247.00 143.00 C 241.65 135.92 245.46 127.10 246.02 119.20 C 245.00 118.57 243.94 118.01 242.86 117.52 Z" />
<path fill="#fcc994" d=" M 92.20 117.99 C 95.80 120.20 93.54 124.45 90.15 125.31 C 90.81 122.86 91.85 120.52 92.20 117.99 Z" />
<path fill="#f49949" d=" M 238.76 119.75 C 240.08 118.94 241.42 118.14 242.86 117.52 C 243.94 118.01 245.00 118.57 246.02 119.20 C 245.46 127.10 241.65 135.92 247.00 143.00 C 247.96 144.95 250.97 149.67 247.09 150.27 C 242.77 146.38 239.47 141.66 236.82 136.50 C 241.59 135.53 237.06 128.68 238.46 125.75 C 239.16 122.85 243.49 122.25 244.19 119.20 C 242.37 119.32 240.56 119.56 238.76 119.75 Z" />
<path fill="#f7ceaf" d=" M 238.76 119.75 C 240.56 119.56 242.37 119.32 244.19 119.20 C 243.49 122.25 239.16 122.85 238.46 125.75 C 237.06 128.68 241.59 135.53 236.82 136.50 C 235.84 134.92 235.08 133.20 235.21 131.30 C 236.50 128.01 236.55 124.47 236.85 121.00 C 237.32 120.69 238.28 120.07 238.76 119.75 Z" />
<path fill="#f99f48" d=" M 76.04 119.94 C 76.58 119.89 77.65 119.80 78.19 119.75 C 78.44 120.02 78.94 120.55 79.19 120.82 C 77.94 128.18 79.88 135.06 83.88 141.16 C 87.65 150.14 74.80 146.87 75.71 141.23 L 76.67 141.42 C 82.78 142.93 74.37 133.28 74.08 131.04 C 79.51 132.92 76.05 123.38 76.04 119.94 Z" />
<path fill="#b84416" d=" M 174.03 119.88 C 175.34 121.31 176.62 122.77 177.90 124.24 C 178.30 126.17 175.89 124.04 175.06 124.03 C 174.73 122.64 174.37 121.26 174.03 119.88 Z" />
<path fill="#1d0301" d=" M 0.00 133.50 C 2.38 129.29 3.87 124.55 6.94 120.75 C 9.63 131.95 5.66 147.15 13.95 156.02 C 19.20 150.35 18.83 139.62 20.28 131.80 C 23.39 134.31 26.54 136.98 28.19 140.75 C 27.21 153.24 32.55 165.89 28.11 178.11 C 25.92 183.90 25.84 190.48 22.81 195.91 C 18.24 194.86 19.98 185.88 16.88 181.85 C 13.05 185.10 15.27 193.29 14.04 195.94 C 7.47 177.72 6.09 156.57 3.77 136.91 C 2.42 138.31 1.23 139.86 0.00 141.37 L 0.00 133.50 Z" />
<path fill="#f3d5c1" d=" M 202.92 127.13 C 207.07 132.25 204.01 120.34 209.17 120.60 C 209.64 120.74 210.59 121.01 211.07 121.15 C 209.59 125.27 208.47 137.79 202.85 131.02 C 202.44 129.77 200.76 124.31 202.92 127.13 Z" />
<path fill="#f69e48" d=" M 211.07 121.15 C 220.12 122.47 212.14 136.20 217.19 141.95 C 219.04 146.24 212.91 144.08 210.71 144.17 C 207.91 139.91 204.70 135.80 202.85 131.02 C 208.47 137.79 209.59 125.27 211.07 121.15 Z" />
<path fill="#fa9d41" d=" M 61.05 133.01 C 68.47 137.45 62.78 123.44 68.23 123.53 C 68.09 124.07 67.81 125.16 67.67 125.70 C 64.07 132.83 75.31 138.01 72.91 143.89 C 67.48 142.40 65.07 136.45 61.05 133.01 Z" />
<path fill="#de6825" d=" M 68.23 123.53 C 72.97 123.11 73.19 127.61 74.08 131.04 C 74.37 133.28 82.78 142.93 76.67 141.42 C 75.06 137.42 72.41 133.82 71.57 129.54 C 73.71 123.32 69.96 125.40 67.67 125.70 C 67.81 125.16 68.09 124.07 68.23 123.53 Z" />
<path fill="#6c320e" d=" M 216.33 123.71 C 216.00 129.94 219.90 124.05 220.74 129.97 L 219.75 130.19 C 217.99 130.36 219.32 133.10 219.68 134.18 C 220.95 137.28 223.20 139.81 225.65 142.05 L 225.54 142.84 C 224.58 146.52 227.62 149.71 229.05 152.91 C 228.96 153.63 228.77 155.06 228.68 155.77 C 225.13 159.76 228.47 166.96 228.44 172.29 C 228.25 175.98 227.56 179.64 226.13 183.05 C 227.28 171.27 226.72 157.93 219.26 148.18 C 220.33 139.77 213.69 132.42 216.33 123.71 Z" />
<path fill="#531306" d=" M 67.67 125.70 C 69.96 125.40 73.71 123.32 71.57 129.54 C 72.41 133.82 75.06 137.42 76.67 141.42 L 75.71 141.23 C 72.41 136.45 68.07 131.76 67.67 125.70 Z" />
<path fill="#5a180a" d=" M 153.75 125.98 C 154.72 125.55 155.72 125.20 156.76 124.94 C 156.49 131.09 160.28 135.96 162.88 141.13 C 157.78 138.09 154.66 131.76 153.75 125.98 Z" />
<path fill="#fcc58d" d=" M 159.09 124.75 C 161.92 126.86 161.63 130.97 162.02 134.16 C 158.57 132.58 159.76 127.52 159.09 124.75 Z" />
<path fill="#ad5831" d=" M 185.94 125.44 C 190.31 123.51 186.55 132.43 187.99 134.17 C 187.41 131.23 187.15 128.21 185.94 125.44 Z" />
<path fill="#1f0502" d=" M 234.38 125.40 C 234.59 126.87 235.00 129.83 235.21 131.30 C 235.08 133.20 235.84 134.92 236.82 136.50 C 239.47 141.66 242.77 146.38 247.09 150.27 C 247.89 152.27 248.64 154.31 249.74 156.18 C 250.72 152.98 250.94 149.62 250.91 146.29 C 252.60 145.73 254.29 145.18 256.00 144.68 L 256.00 189.50 C 254.77 193.04 253.75 196.66 252.16 200.06 C 249.63 203.34 248.53 207.83 245.00 210.26 C 238.38 205.46 242.13 195.79 239.74 188.80 C 239.87 188.41 240.11 187.61 240.23 187.22 C 241.61 182.89 242.94 178.45 243.03 173.89 C 239.69 174.34 239.11 178.67 236.17 179.99 C 229.23 172.77 238.98 157.37 229.05 152.91 C 227.62 149.71 224.58 146.52 225.54 142.84 C 227.66 148.88 237.15 146.34 238.29 143.62 C 234.43 138.29 231.56 131.86 234.38 125.40 Z" />
<path fill="#400d05" d=" M 185.01 125.78 L 185.94 125.44 C 187.15 128.21 187.41 131.23 187.99 134.17 C 188.27 135.84 188.57 137.51 188.83 139.18 C 184.43 136.23 184.33 130.54 185.01 125.78 Z" />
<path fill="#fcd3ae" d=" M 189.91 140.10 C 192.78 135.70 185.20 127.47 190.77 126.10 C 190.27 130.97 194.32 136.48 191.20 140.76 C 190.88 140.59 190.23 140.27 189.91 140.10 Z" />
<path fill="#4e0602" d=" M 83.05 135.30 C 83.67 132.46 85.04 129.88 87.97 128.94 C 88.59 131.64 89.98 135.07 85.88 133.14 C 90.30 137.08 94.57 141.22 99.34 144.76 C 97.26 153.50 96.59 163.12 91.79 170.89 C 86.05 171.98 91.00 160.06 84.14 159.76 C 83.19 165.38 86.63 173.65 80.26 177.02 C 77.74 172.28 80.10 165.51 76.14 161.82 C 76.31 168.30 71.78 171.56 70.08 164.71 C 70.02 166.34 69.90 169.61 69.84 171.24 C 67.35 164.96 67.81 158.19 68.18 151.61 C 72.04 155.56 69.58 162.62 73.91 166.21 C 73.45 162.53 72.74 158.87 72.79 155.13 C 76.37 159.24 85.37 152.93 80.27 148.84 C 88.18 150.33 87.32 139.15 83.05 135.30 Z" />
<path fill="#f4c9b0" d=" M 219.68 134.18 C 219.32 133.10 217.99 130.36 219.75 130.19 C 220.75 132.39 222.53 134.05 224.42 135.50 C 223.52 138.13 221.21 134.62 219.68 134.18 Z" />
<path fill="#d06938" d=" M 219.75 130.19 L 220.74 129.97 C 221.53 130.62 222.33 131.26 223.14 131.90 C 223.58 133.09 224.01 134.29 224.42 135.50 C 222.53 134.05 220.75 132.39 219.75 130.19 Z" />
<path fill="#632509" d=" M 37.81 131.98 L 38.86 131.99 C 44.04 136.32 43.18 146.58 51.17 146.67 C 45.14 147.86 46.30 158.03 45.27 162.75 C 44.83 164.35 45.60 166.92 43.88 167.83 C 39.76 169.21 39.86 174.22 37.95 177.48 C 36.44 174.35 38.88 168.01 34.17 167.06 C 33.68 168.97 33.28 170.90 32.96 172.85 L 32.05 173.15 C 33.74 165.99 30.73 158.94 31.03 151.76 C 35.27 153.94 31.53 163.12 36.84 162.96 C 39.62 157.70 43.42 152.32 43.49 146.15 C 42.77 141.07 37.66 137.40 37.81 131.98 Z" />
<path fill="#370c04" d=" M 0.00 141.37 C 1.23 139.86 2.42 138.31 3.77 136.91 C 6.09 156.57 7.47 177.72 14.04 195.94 C 15.27 193.29 13.05 185.10 16.88 181.85 C 19.98 185.88 18.24 194.86 22.81 195.91 C 25.84 190.48 25.92 183.90 28.11 178.11 C 32.55 165.89 27.21 153.24 28.19 140.75 C 29.86 148.46 36.81 147.13 43.49 146.15 C 43.42 152.32 39.62 157.70 36.84 162.96 C 31.53 163.12 35.27 153.94 31.03 151.76 C 30.73 158.94 33.74 165.99 32.05 173.15 C 30.01 181.28 28.44 189.53 26.87 197.77 C 26.17 205.38 21.00 202.59 18.03 196.79 C 17.56 200.70 18.46 204.52 19.60 208.20 C 20.03 210.03 20.46 211.86 20.92 213.68 C 19.28 217.86 15.47 218.82 13.82 214.00 C 5.16 194.89 5.88 173.45 2.85 153.12 C 2.50 151.23 1.74 149.35 0.00 148.35 L 0.00 141.37 Z" />
<path fill="#f7d5b6" d=" M 162.88 141.13 C 166.85 139.48 167.15 145.13 163.14 144.09 C 163.08 143.35 162.95 141.87 162.88 141.13 Z" />
<path fill="#450602" d=" M 182.38 141.99 C 183.93 142.48 185.49 142.95 187.07 143.33 C 184.80 143.63 181.19 145.82 184.81 147.37 C 187.00 149.27 190.07 149.31 192.65 150.39 C 196.96 151.17 197.02 158.79 202.16 155.06 C 208.61 165.86 199.83 183.78 212.33 190.59 C 211.56 191.94 211.47 194.95 209.24 193.81 C 202.75 186.81 204.69 176.22 201.90 167.91 C 198.57 172.45 200.55 184.33 192.07 185.29 L 192.01 184.28 C 193.34 179.67 187.76 178.74 187.27 174.70 C 184.60 166.65 184.18 158.18 183.81 149.80 C 176.36 165.14 179.54 185.38 185.38 201.27 C 184.99 202.54 184.58 203.80 184.11 205.05 C 180.11 209.78 177.22 203.22 176.49 199.56 C 176.66 187.35 174.08 175.10 175.98 162.94 C 169.09 167.06 173.59 183.92 165.12 186.04 C 161.55 173.48 159.66 160.32 160.22 147.27 C 160.69 147.12 161.65 146.84 162.12 146.69 C 165.01 147.98 168.04 149.87 171.23 148.24 C 170.17 151.85 163.25 152.79 165.54 157.36 C 166.98 158.78 166.79 167.78 170.25 164.28 C 171.95 155.65 178.21 149.41 182.38 141.99 Z" />
<path fill="#6a260e" d=" M 193.99 144.81 C 190.03 145.07 190.91 139.88 194.05 143.19 L 194.28 144.05 L 193.99 144.81 Z" />
<path fill="#eeb79a" d=" M 187.07 143.33 C 192.55 143.41 188.65 148.39 184.81 147.37 C 181.19 145.82 184.80 143.63 187.07 143.33 Z" />
<path fill="#f5c9a2" d=" M 194.28 144.05 C 197.72 141.24 198.22 149.69 193.55 146.75 C 193.66 146.26 193.88 145.29 193.99 144.81 L 194.28 144.05 Z" />
<path fill="#902009" d=" M 124.10 143.81 C 124.42 147.68 127.38 146.51 130.05 145.60 C 130.46 150.50 132.09 157.16 127.98 160.97 C 125.56 172.34 126.58 185.19 122.20 196.22 C 117.85 201.89 121.63 188.58 117.08 189.93 C 116.91 200.65 117.22 212.48 111.83 222.13 C 106.66 216.07 110.11 206.25 108.88 198.80 C 108.23 199.91 107.64 201.05 107.04 202.19 C 107.16 197.99 108.16 193.23 111.98 190.82 C 110.72 198.18 109.06 205.50 110.04 213.05 C 115.99 213.95 114.54 204.85 115.63 201.48 C 115.49 195.36 117.99 187.78 113.56 182.69 C 114.98 177.44 114.83 172.07 114.09 166.73 C 120.79 171.53 114.43 185.30 121.78 186.86 C 126.38 176.21 126.91 164.05 124.92 152.74 C 124.81 149.75 124.39 146.78 124.10 143.81 Z" />
<path fill="#6d1606" d=" M 99.34 144.76 C 99.80 145.08 100.73 145.71 101.19 146.03 C 98.65 156.49 97.38 167.53 91.88 176.99 C 85.72 178.89 91.16 167.30 85.24 169.03 C 83.01 173.34 86.43 185.48 80.31 186.89 C 79.06 183.26 75.01 181.48 74.47 177.59 C 72.68 176.38 74.72 170.29 71.09 170.95 C 70.26 174.40 69.44 178.23 73.10 179.93 C 75.60 185.82 77.97 196.17 70.97 200.24 C 63.33 196.35 65.94 187.33 67.98 180.86 C 65.70 181.76 63.32 182.78 61.62 184.61 C 59.63 186.68 57.71 188.82 55.83 190.99 C 53.50 191.35 48.76 188.34 48.73 192.12 C 46.82 186.50 45.20 180.69 45.04 174.72 C 47.75 175.71 48.34 179.00 49.95 181.13 C 51.17 183.51 52.38 185.95 54.17 187.97 C 57.46 186.16 56.75 181.45 58.07 178.30 C 63.13 182.82 69.58 176.53 69.84 171.24 C 69.90 169.61 70.02 166.34 70.08 164.71 C 71.78 171.56 76.31 168.30 76.14 161.82 C 80.10 165.51 77.74 172.28 80.26 177.02 C 86.63 173.65 83.19 165.38 84.14 159.76 C 91.00 160.06 86.05 171.98 91.79 170.89 C 96.59 163.12 97.26 153.50 99.34 144.76 Z" />
<path fill="#ce4c15" d=" M 130.05 145.60 C 131.01 145.28 132.02 145.57 132.99 145.69 C 133.80 152.42 135.36 159.03 136.23 165.75 C 136.12 170.21 136.71 174.63 137.01 179.08 C 134.82 177.08 132.16 175.48 130.88 172.69 L 130.79 171.66 C 130.88 169.56 133.48 163.50 129.22 164.04 C 124.16 174.61 133.48 190.43 124.13 199.13 C 123.08 203.82 123.29 208.73 121.86 213.37 C 120.20 212.43 119.96 210.45 119.16 208.90 C 118.89 208.60 118.36 208.00 118.09 207.70 C 116.56 213.69 115.59 219.82 113.76 225.74 C 112.25 228.63 109.99 225.56 109.02 223.95 C 108.98 223.52 108.91 222.65 108.87 222.22 C 108.74 219.25 108.11 216.09 105.82 213.99 C 98.92 216.19 107.40 229.71 100.27 228.81 C 97.42 225.14 95.18 221.01 93.15 216.84 C 92.72 215.23 92.32 213.62 91.94 212.01 C 95.38 216.18 96.23 223.37 101.96 225.24 C 101.89 223.76 101.75 220.78 101.69 219.30 C 98.65 213.78 104.88 213.11 105.98 209.09 C 106.03 208.39 106.12 206.99 106.17 206.30 C 106.47 204.93 106.78 203.56 107.04 202.19 C 107.64 201.05 108.23 199.91 108.88 198.80 C 110.11 206.25 106.66 216.07 111.83 222.13 C 117.22 212.48 116.91 200.65 117.08 189.93 C 121.63 188.58 117.85 201.89 122.20 196.22 C 126.58 185.19 125.56 172.34 127.98 160.97 C 132.09 157.16 130.46 150.50 130.05 145.60 Z" />
<path fill="#a5370e" d=" M 101.19 146.03 C 102.46 146.92 103.65 147.91 104.86 148.89 C 101.48 148.91 103.49 153.21 103.23 155.63 C 102.22 171.35 91.39 187.89 99.97 203.02 C 101.61 205.04 102.24 211.73 105.98 209.09 C 104.88 213.11 98.65 213.78 101.69 219.30 C 96.95 214.14 97.95 204.85 91.12 201.74 C 91.45 199.50 95.74 203.43 96.78 200.79 C 95.99 195.15 95.87 189.27 94.26 183.78 C 92.87 182.11 91.09 180.82 89.09 179.97 C 89.09 185.47 83.99 186.75 80.92 190.24 C 78.79 188.58 74.08 177.94 76.54 188.54 C 78.02 194.55 75.84 202.13 69.82 204.73 C 64.77 203.03 59.35 198.16 61.22 192.22 C 63.30 189.81 68.15 182.12 61.62 184.61 C 63.32 182.78 65.70 181.76 67.98 180.86 C 65.94 187.33 63.33 196.35 70.97 200.24 C 77.97 196.17 75.60 185.82 73.10 179.93 C 69.44 178.23 70.26 174.40 71.09 170.95 C 74.72 170.29 72.68 176.38 74.47 177.59 C 75.01 181.48 79.06 183.26 80.31 186.89 C 86.43 185.48 83.01 173.34 85.24 169.03 C 91.16 167.30 85.72 178.89 91.88 176.99 C 97.38 167.53 98.65 156.49 101.19 146.03 Z" />
<path fill="#771306" d=" M 132.99 145.69 C 134.74 145.94 136.51 146.13 138.22 146.61 C 132.92 145.73 135.42 152.30 136.07 155.00 C 139.42 165.04 140.69 175.59 143.11 185.84 C 146.71 183.73 147.62 177.68 149.35 173.81 C 152.82 183.60 150.87 194.60 149.86 204.78 C 149.60 207.60 149.70 211.21 146.23 209.89 C 141.76 206.33 150.65 190.44 141.14 197.05 C 140.20 186.52 139.81 175.79 136.23 165.75 C 135.36 159.03 133.80 152.42 132.99 145.69 Z" />
<path fill="#761506" d=" M 158.16 145.64 C 159.49 145.95 160.83 146.22 162.12 146.69 C 161.65 146.84 160.69 147.12 160.22 147.27 C 159.66 160.32 161.55 173.48 165.12 186.04 C 173.59 183.92 169.09 167.06 175.98 162.94 C 174.08 175.10 176.66 187.35 176.49 199.56 C 177.22 203.22 180.11 209.78 184.11 205.05 C 183.50 206.72 182.80 208.36 182.08 209.99 C 181.09 210.67 180.10 211.35 179.06 211.96 C 176.58 206.96 175.06 201.42 175.01 195.83 C 175.27 191.84 172.44 188.66 170.69 185.34 C 165.87 182.31 170.81 196.78 165.94 193.04 C 160.68 184.23 161.75 172.85 157.23 163.60 C 156.21 180.45 161.04 196.79 164.28 213.14 L 164.18 213.96 C 162.27 218.95 161.14 224.56 157.79 228.86 C 154.15 230.38 155.06 226.51 155.02 224.15 C 159.32 208.39 156.34 192.12 152.93 176.55 C 161.01 169.09 152.96 155.20 158.16 145.64 Z" />
<path fill="#400903" d=" M 216.84 147.24 C 217.44 147.47 218.65 147.94 219.26 148.18 C 226.72 157.93 227.28 171.27 226.13 183.05 C 223.25 187.15 221.38 192.22 217.07 195.09 C 214.57 189.38 219.86 180.54 216.02 176.74 C 217.94 166.94 220.44 157.13 216.84 147.24 Z" />
<path fill="#4c2b0b" d=" M 0.00 148.35 C 1.74 149.35 2.50 151.23 2.85 153.12 C 5.88 173.45 5.16 194.89 13.82 214.00 C 13.31 214.33 12.29 215.01 11.78 215.34 C 3.95 202.57 6.56 186.30 0.00 173.41 L 0.00 148.35 Z" />
<path fill="#681a07" d=" M 185.38 201.27 C 179.54 185.38 176.36 165.14 183.81 149.80 C 184.18 158.18 184.60 166.65 187.27 174.70 C 187.76 178.74 193.34 179.67 192.01 184.28 C 185.55 181.59 186.78 173.10 182.22 168.64 C 183.25 178.84 183.73 189.02 186.21 198.92 C 186.01 199.51 185.59 200.68 185.38 201.27 Z" />
<path fill="#501d08" d=" M 229.05 152.91 C 238.98 157.37 229.23 172.77 236.17 179.99 C 239.11 178.67 239.69 174.34 243.03 173.89 C 242.94 178.45 241.61 182.89 240.23 187.22 C 225.82 183.76 237.52 164.47 228.68 155.77 C 228.77 155.06 228.96 153.63 229.05 152.91 Z" />
<path fill="#7d1507" d=" M 103.23 155.63 C 103.94 167.32 101.16 178.90 98.31 190.15 C 99.24 195.46 99.42 205.26 106.17 206.30 C 106.12 206.99 106.03 208.39 105.98 209.09 C 102.24 211.73 101.61 205.04 99.97 203.02 C 91.39 187.89 102.22 171.35 103.23 155.63 Z" />
<path fill="#914712" d=" M 228.44 172.29 C 228.47 166.96 225.13 159.76 228.68 155.77 C 237.52 164.47 225.82 183.76 240.23 187.22 C 240.11 187.61 239.87 188.41 239.74 188.80 C 238.99 191.11 238.35 193.45 237.91 195.84 L 237.09 196.06 C 237.27 193.26 236.24 190.63 234.12 188.79 C 229.72 181.54 232.70 172.04 230.89 164.06 C 226.67 163.00 229.63 169.79 228.44 172.29 Z" />
<path fill="#510a04" d=" M 45.27 162.75 C 47.00 168.83 48.72 174.93 49.95 181.13 C 48.34 179.00 47.75 175.71 45.04 174.72 C 45.20 180.69 46.82 186.50 48.73 192.12 C 50.74 197.73 52.27 204.24 49.80 209.93 C 46.59 212.24 44.42 202.31 44.30 207.79 C 46.07 214.03 39.71 209.90 41.17 204.86 L 41.04 204.06 C 40.35 196.93 39.77 189.77 38.35 182.74 C 38.16 180.99 38.05 179.23 37.95 177.48 C 39.86 174.22 39.76 169.21 43.88 167.83 C 45.60 166.92 44.83 164.35 45.27 162.75 Z" />
<path fill="#e88528" d=" M 129.22 164.04 C 133.48 163.50 130.88 169.56 130.79 171.66 C 125.28 182.23 133.31 196.61 125.92 206.90 C 123.52 210.43 123.07 214.78 122.97 218.93 C 122.77 220.05 122.56 221.16 122.34 222.27 C 122.19 219.28 122.06 216.34 121.86 213.37 C 123.29 208.73 123.08 203.82 124.13 199.13 C 133.48 190.43 124.16 174.61 129.22 164.04 Z" />
<path fill="#9a360d" d=" M 157.23 163.60 C 161.75 172.85 160.68 184.23 165.94 193.04 C 170.81 196.78 165.87 182.31 170.69 185.34 C 172.44 188.66 175.27 191.84 175.01 195.83 C 165.25 191.82 163.29 206.41 164.28 213.14 C 161.04 196.79 156.21 180.45 157.23 163.60 Z" />
<path fill="#c98421" d=" M 228.44 172.29 C 229.63 169.79 226.67 163.00 230.89 164.06 C 232.70 172.04 229.72 181.54 234.12 188.79 C 230.34 186.89 227.54 189.52 225.29 192.31 C 225.22 191.45 225.07 189.74 225.00 188.88 C 225.42 186.95 225.78 185.00 226.13 183.05 C 227.56 179.64 228.25 175.98 228.44 172.29 Z" />
<path fill="#b3270c" d=" M 136.23 165.75 C 139.81 175.79 140.20 186.52 141.14 197.05 C 150.65 190.44 141.76 206.33 146.23 209.89 C 149.70 211.21 149.60 207.60 149.86 204.78 C 149.92 206.57 150.04 208.37 150.11 210.17 C 150.05 210.58 149.93 211.41 149.87 211.82 C 149.07 213.63 148.43 218.95 145.75 216.28 C 143.18 209.97 140.87 203.43 139.21 196.79 C 138.58 190.87 137.81 184.97 137.01 179.08 C 136.71 174.63 136.12 170.21 136.23 165.75 Z" />
<path fill="#ac661a" d=" M 34.17 167.06 C 38.88 168.01 36.44 174.35 37.95 177.48 C 38.05 179.23 38.16 180.99 38.35 182.74 C 40.97 193.28 34.06 187.13 32.37 182.67 C 32.49 179.38 32.81 176.12 32.96 172.85 C 33.28 170.90 33.68 168.97 34.17 167.06 Z" />
<path fill="#732009" d=" M 192.07 185.29 C 200.55 184.33 198.57 172.45 201.90 167.91 C 204.69 176.22 202.75 186.81 209.24 193.81 C 211.47 194.95 211.56 191.94 212.33 190.59 C 214.50 186.27 215.05 181.41 216.02 176.74 C 219.86 180.54 214.57 189.38 217.07 195.09 C 221.38 192.22 223.25 187.15 226.13 183.05 C 225.78 185.00 225.42 186.95 225.00 188.88 C 221.82 193.24 218.67 197.59 216.01 202.29 C 211.98 201.71 213.26 194.09 209.96 196.03 C 205.78 193.03 203.96 194.55 204.00 200.03 C 198.89 198.06 196.75 193.75 198.33 188.34 C 199.26 182.51 190.36 192.09 192.07 185.29 Z" />
<path fill="#95350e" d=" M 182.22 168.64 C 186.78 173.10 185.55 181.59 192.01 184.28 L 192.07 185.29 C 190.36 192.09 199.26 182.51 198.33 188.34 C 196.75 193.75 198.89 198.06 204.00 200.03 C 203.96 194.55 205.78 193.03 209.96 196.03 L 210.10 196.83 C 209.52 197.58 208.94 198.32 208.36 199.05 C 205.72 206.73 195.87 199.54 197.06 193.93 C 198.01 188.71 190.19 191.17 190.49 185.97 C 187.48 188.85 187.59 193.37 187.16 197.25 C 187.13 197.66 187.07 198.48 187.04 198.89 L 186.21 198.92 C 183.73 189.02 183.25 178.84 182.22 168.64 Z" />
<path fill="#bd4411" d=" M 149.35 173.81 C 147.31 167.06 154.40 171.09 152.93 176.55 C 156.34 192.12 159.32 208.39 155.02 224.15 L 154.07 223.88 C 153.33 217.79 159.36 207.70 151.24 204.85 C 150.95 206.18 150.39 208.84 150.11 210.17 C 150.04 208.37 149.92 206.57 149.86 204.78 C 150.87 194.60 152.82 183.60 149.35 173.81 Z" />
<path fill="#f1b941" d=" M 125.92 206.90 C 133.31 196.61 125.28 182.23 130.79 171.66 L 130.88 172.69 C 131.12 177.00 131.34 181.35 132.21 185.60 C 137.55 185.28 136.52 191.56 136.96 195.20 C 137.04 189.85 125.82 191.86 130.06 197.99 C 128.84 202.48 132.71 209.55 127.01 212.00 C 123.11 212.94 124.29 216.63 123.96 219.31 L 122.97 218.93 C 123.07 214.78 123.52 210.43 125.92 206.90 Z" />
<path fill="#933c10" d=" M 32.05 173.15 L 32.96 172.85 C 32.81 176.12 32.49 179.38 32.37 182.67 C 34.06 187.13 40.97 193.28 38.35 182.74 C 39.77 189.77 40.35 196.93 41.04 204.06 C 36.52 194.92 40.87 212.28 33.31 208.93 C 32.64 205.35 32.87 200.22 28.10 200.08 C 30.28 206.74 24.33 210.16 21.52 215.05 C 21.37 214.71 21.07 214.02 20.92 213.68 C 20.46 211.86 20.03 210.03 19.60 208.20 C 27.88 209.55 27.39 203.56 26.87 197.77 C 28.44 189.53 30.01 181.28 32.05 173.15 Z" />
<path fill="#e08123" d=" M 130.88 172.69 C 132.16 175.48 134.82 177.08 137.01 179.08 C 137.81 184.97 138.58 190.87 139.21 196.79 C 139.09 199.92 138.91 203.09 138.78 206.24 C 138.30 202.53 137.69 198.86 136.96 195.20 C 136.52 191.56 137.55 185.28 132.21 185.60 C 131.34 181.35 131.12 177.00 130.88 172.69 Z" />
<path fill="#7b4511" d=" M 0.00 173.41 C 6.56 186.30 3.95 202.57 11.78 215.34 C 15.10 221.62 12.83 229.76 16.86 235.58 C 17.26 236.63 17.66 237.68 18.04 238.75 C 16.63 239.00 15.22 239.20 13.79 239.35 C 12.61 237.91 12.20 236.03 11.68 234.29 C 13.36 222.00 7.42 210.79 4.73 199.17 C 3.69 195.70 2.43 192.20 0.00 189.44 L 0.00 173.41 Z" />
<path fill="#d45b1a" d=" M 89.09 179.97 C 91.09 180.82 92.87 182.11 94.26 183.78 C 85.95 180.18 89.47 194.85 83.87 197.56 C 82.64 194.51 80.78 191.83 78.11 189.85 C 78.08 194.40 81.00 200.30 76.57 203.52 C 73.98 205.04 72.05 207.90 69.18 208.73 C 63.17 205.55 59.42 199.82 58.74 193.04 C 53.07 192.25 52.63 201.35 53.53 205.20 C 53.94 208.99 53.71 213.24 50.91 216.13 C 47.65 216.21 42.73 220.26 41.77 215.17 C 44.91 218.26 46.09 215.58 46.28 212.14 C 47.53 213.07 48.69 214.10 49.97 215.00 C 53.94 207.46 49.40 197.76 55.83 190.99 C 57.71 188.82 59.63 186.68 61.62 184.61 C 68.15 182.12 63.30 189.81 61.22 192.22 C 59.35 198.16 64.77 203.03 69.82 204.73 C 75.84 202.13 78.02 194.55 76.54 188.54 C 74.08 177.94 78.79 188.58 80.92 190.24 C 83.99 186.75 89.09 185.47 89.09 179.97 Z" />
<path fill="#d0942c" d=" M 83.87 197.56 C 89.47 194.85 85.95 180.18 94.26 183.78 C 94.10 188.06 94.24 192.37 93.89 196.66 C 89.47 195.27 88.72 200.85 86.61 203.40 C 85.38 201.62 84.37 199.68 83.87 197.56 Z" />
<path fill="#d05d1b" d=" M 94.26 183.78 C 95.87 189.27 95.99 195.15 96.78 200.79 C 95.74 203.43 91.45 199.50 91.12 201.74 C 91.12 205.17 91.30 208.63 91.94 212.01 C 89.95 209.28 88.25 206.35 86.61 203.40 C 88.72 200.85 89.47 195.27 93.89 196.66 C 94.24 192.37 94.10 188.06 94.26 183.78 Z" />
<path fill="#cd681d" d=" M 187.16 197.25 C 187.59 193.37 187.48 188.85 190.49 185.97 C 190.19 191.17 198.01 188.71 197.06 193.93 C 195.87 199.54 205.72 206.73 208.36 199.05 L 208.17 199.75 C 207.55 202.12 206.38 204.30 204.75 206.12 C 202.19 204.39 198.18 200.96 196.71 205.74 C 194.12 209.61 200.11 212.27 199.42 216.37 C 198.60 219.50 196.87 222.32 194.06 224.02 L 193.24 224.28 C 194.86 220.58 200.13 216.50 196.40 212.66 C 194.84 210.20 193.79 203.87 189.71 206.68 C 186.58 209.56 185.11 213.73 183.65 217.62 L 183.24 218.30 C 182.94 216.62 182.35 213.24 182.05 211.55 C 182.06 211.16 182.07 210.38 182.08 209.99 C 182.80 208.36 183.50 206.72 184.11 205.05 C 184.58 203.80 184.99 202.54 185.38 201.27 C 185.59 200.68 186.01 199.51 186.21 198.92 L 187.04 198.89 C 189.06 200.54 188.42 204.85 191.89 204.08 C 195.34 201.50 198.25 195.42 194.71 192.09 C 189.42 189.49 188.71 194.12 187.16 197.25 Z" />
<path fill="#f67f26" d=" M 225.29 192.31 C 227.54 189.52 230.34 186.89 234.12 188.79 C 236.24 190.63 237.27 193.26 237.09 196.06 C 237.02 196.49 236.88 197.35 236.81 197.78 C 236.26 199.24 235.71 200.71 235.14 202.17 C 235.09 197.92 235.25 192.16 230.96 189.67 C 228.63 192.88 227.49 196.83 224.91 199.89 C 224.22 200.52 223.56 201.17 222.92 201.84 C 221.74 203.03 220.70 204.36 219.87 205.81 C 218.11 209.24 217.92 213.63 212.79 211.91 C 212.06 207.91 211.18 202.42 208.17 199.75 L 208.36 199.05 C 208.94 198.32 209.52 197.58 210.10 196.83 C 210.23 200.52 212.06 207.77 216.64 207.82 C 218.29 201.87 223.27 198.00 225.29 192.31 Z" />
<path fill="#c93b12" d=" M 216.01 202.29 C 218.67 197.59 221.82 193.24 225.00 188.88 C 225.07 189.74 225.22 191.45 225.29 192.31 C 223.27 198.00 218.29 201.87 216.64 207.82 C 212.06 207.77 210.23 200.52 210.10 196.83 L 209.96 196.03 C 213.26 194.09 211.98 201.71 216.01 202.29 Z" />
<path fill="#460503" d=" M 237.91 195.84 C 238.35 193.45 238.99 191.11 239.74 188.80 C 242.13 195.79 238.38 205.46 245.00 210.26 C 248.53 207.83 249.63 203.34 252.16 200.06 C 251.29 203.95 249.64 207.66 249.18 211.65 C 248.93 212.33 248.43 213.68 248.17 214.35 C 236.98 218.42 237.43 202.62 237.91 195.84 Z" />
<path fill="#996c1a" d=" M 0.00 189.44 C 2.43 192.20 3.69 195.70 4.73 199.17 C 7.42 210.79 13.36 222.00 11.68 234.29 C 8.89 226.92 8.25 217.98 3.07 211.77 C 3.96 222.26 10.48 232.70 8.23 243.11 C 6.02 229.84 2.95 216.68 0.00 203.56 L 0.00 189.44 Z" />
<path fill="#90200a" d=" M 48.73 192.12 C 48.76 188.34 53.50 191.35 55.83 190.99 C 49.40 197.76 53.94 207.46 49.97 215.00 C 48.69 214.10 47.53 213.07 46.28 212.14 C 46.09 215.58 44.91 218.26 41.77 215.17 C 41.55 211.73 41.36 208.29 41.17 204.86 C 39.71 209.90 46.07 214.03 44.30 207.79 C 44.42 202.31 46.59 212.24 49.80 209.93 C 52.27 204.24 50.74 197.73 48.73 192.12 Z" />
<path fill="#f3b33b" d=" M 78.11 189.85 C 80.78 191.83 82.64 194.51 83.87 197.56 C 84.37 199.68 85.38 201.62 86.61 203.40 C 88.25 206.35 89.95 209.28 91.94 212.01 C 92.32 213.62 92.72 215.23 93.15 216.84 C 94.14 223.44 89.83 220.05 89.15 215.88 C 88.17 213.15 86.75 209.26 83.11 209.92 C 81.75 218.21 81.92 226.65 81.90 235.03 C 79.47 241.36 86.72 244.37 86.47 250.23 C 86.11 252.18 85.67 254.12 85.05 256.00 L 83.93 256.00 C 86.31 250.14 82.86 245.89 80.81 240.84 C 81.19 229.90 82.55 218.81 77.60 208.84 C 70.46 216.56 60.73 206.97 58.84 199.10 C 56.60 193.36 54.66 202.86 53.53 205.20 C 52.63 201.35 53.07 192.25 58.74 193.04 C 59.42 199.82 63.17 205.55 69.18 208.73 C 72.05 207.90 73.98 205.04 76.57 203.52 C 81.00 200.30 78.08 194.40 78.11 189.85 Z" />
<path fill="#fff565" d=" M 224.91 199.89 C 227.49 196.83 228.63 192.88 230.96 189.67 C 235.25 192.16 235.09 197.92 235.14 202.17 C 235.06 202.60 234.91 203.44 234.83 203.87 C 234.84 210.19 235.39 216.21 231.06 221.22 C 228.03 222.20 226.41 217.69 223.22 219.07 C 221.12 221.22 220.88 224.31 220.76 227.15 C 218.23 224.84 216.85 220.82 213.34 219.81 C 213.95 222.47 212.25 231.43 208.17 226.79 C 208.88 223.53 208.76 220.26 206.86 217.40 C 211.00 217.84 209.13 212.26 212.79 211.91 C 213.26 214.17 215.64 215.33 217.81 215.00 C 219.95 212.52 219.24 208.85 219.87 205.81 C 220.70 204.36 221.74 203.03 222.92 201.84 C 221.85 207.22 220.59 212.62 221.02 218.17 C 223.40 217.60 225.61 216.51 227.97 215.85 C 229.31 216.30 231.42 218.13 231.52 215.58 C 231.94 209.84 234.33 203.47 232.05 197.94 C 230.91 195.19 229.08 198.98 227.84 199.86 C 227.11 199.87 225.64 199.88 224.91 199.89 Z" />
<path fill="#67370f" d=" M 252.16 200.06 C 253.75 196.66 254.77 193.04 256.00 189.50 L 256.00 220.21 C 251.31 219.56 251.44 214.70 249.18 211.65 C 249.64 207.66 251.29 203.95 252.16 200.06 Z" />
<path fill="#fde466" d=" M 130.06 197.99 C 125.82 191.86 137.04 189.85 136.96 195.20 C 137.69 198.86 138.30 202.53 138.78 206.24 C 139.17 209.54 140.16 212.71 141.09 215.90 C 141.05 217.30 141.01 218.70 140.96 220.10 L 139.99 219.91 C 138.79 215.03 137.37 210.15 137.01 205.11 C 136.79 203.36 137.20 201.33 135.83 199.95 C 130.88 200.27 132.45 206.30 131.75 209.84 C 129.87 213.49 127.53 217.13 123.96 219.31 C 124.29 216.63 123.11 212.94 127.01 212.00 C 132.71 209.55 128.84 202.48 130.06 197.99 Z" />
<path fill="#d9a332" d=" M 187.16 197.25 C 188.71 194.12 189.42 189.49 194.71 192.09 C 198.25 195.42 195.34 201.50 191.89 204.08 C 188.42 204.85 189.06 200.54 187.04 198.89 C 187.07 198.48 187.13 197.66 187.16 197.25 Z" />
<path fill="#c34514" d=" M 164.28 213.14 C 163.29 206.41 165.25 191.82 175.01 195.83 C 175.06 201.42 176.58 206.96 179.06 211.96 C 180.10 211.35 181.09 210.67 182.08 209.99 C 182.07 210.38 182.06 211.16 182.05 211.55 C 181.11 212.99 180.17 214.43 179.24 215.87 C 175.48 219.05 173.58 214.34 172.93 211.19 C 173.81 206.82 173.04 202.33 169.75 199.28 C 166.95 197.82 168.38 202.31 167.75 203.85 C 165.55 209.22 165.81 215.18 165.11 220.88 C 168.29 220.08 170.85 220.90 172.33 223.93 C 172.05 236.35 162.86 245.51 157.59 256.00 L 153.90 256.00 C 153.44 252.16 159.22 242.07 152.98 244.94 C 153.17 243.36 153.36 241.79 153.61 240.23 C 158.52 232.17 164.08 223.73 164.18 213.96 L 164.28 213.14 Z" />
<path fill="#811809" d=" M 237.09 196.06 L 237.91 195.84 C 237.43 202.62 236.98 218.42 248.17 214.35 C 247.80 215.18 247.42 216.01 247.01 216.83 C 244.73 216.77 242.47 216.46 240.21 216.23 C 239.66 215.92 238.56 215.28 238.01 214.96 C 237.15 209.28 236.96 203.51 236.81 197.78 C 236.88 197.35 237.02 196.49 237.09 196.06 Z" />
<path fill="#5e1c07" d=" M 18.03 196.79 C 21.00 202.59 26.17 205.38 26.87 197.77 C 27.39 203.56 27.88 209.55 19.60 208.20 C 18.46 204.52 17.56 200.70 18.03 196.79 Z" />
<path fill="#fee660" d=" M 53.53 205.20 C 54.66 202.86 56.60 193.36 58.84 199.10 C 60.73 206.97 70.46 216.56 77.60 208.84 C 82.55 218.81 81.19 229.90 80.81 240.84 L 80.26 241.41 C 81.50 231.22 79.91 221.96 74.88 213.25 C 67.18 214.84 60.25 209.49 55.26 204.77 C 57.77 209.86 50.17 216.66 55.98 220.29 C 57.87 218.71 58.79 215.34 61.82 215.97 C 63.35 219.10 64.24 222.51 65.10 225.88 C 60.25 223.01 59.87 231.06 59.73 234.36 C 61.52 238.72 55.30 241.75 54.15 236.59 C 53.05 231.97 51.37 227.48 51.08 222.69 C 52.52 223.73 53.80 224.95 55.20 226.04 C 54.73 222.37 52.45 219.38 50.91 216.13 C 53.71 213.24 53.94 208.99 53.53 205.20 Z" />
<path fill="#f43917" d=" M 139.21 196.79 C 140.87 203.43 143.18 209.97 145.75 216.28 C 148.43 218.95 149.07 213.63 149.87 211.82 C 149.93 213.26 150.00 214.70 150.07 216.14 C 149.51 219.48 148.91 222.83 148.06 226.11 C 142.40 229.23 143.46 218.70 141.09 215.90 C 140.16 212.71 139.17 209.54 138.78 206.24 C 138.91 203.09 139.09 199.92 139.21 196.79 Z" />
<path fill="#fffff2" d=" M 227.84 199.86 C 229.08 198.98 230.91 195.19 232.05 197.94 C 234.33 203.47 231.94 209.84 231.52 215.58 C 231.42 218.13 229.31 216.30 227.97 215.85 C 220.08 213.26 223.94 204.34 227.84 199.86 Z" />
<path fill="#e02413" d=" M 235.14 202.17 C 235.71 200.71 236.26 199.24 236.81 197.78 C 236.96 203.51 237.15 209.28 238.01 214.96 C 234.24 212.86 235.55 207.49 234.83 203.87 C 234.91 203.44 235.06 202.60 235.14 202.17 Z" />
<path fill="#de7f23" d=" M 167.75 203.85 C 168.38 202.31 166.95 197.82 169.75 199.28 C 173.04 202.33 173.81 206.82 172.93 211.19 C 172.06 209.40 171.60 198.81 167.75 203.85 Z" />
<path fill="#d45518" d=" M 28.10 200.08 C 32.87 200.22 32.64 205.35 33.31 208.93 C 40.87 212.28 36.52 194.92 41.04 204.06 L 41.17 204.86 C 41.36 208.29 41.55 211.73 41.77 215.17 C 40.66 213.30 40.04 210.29 37.21 211.05 C 36.34 213.66 36.07 216.41 36.01 219.16 C 34.40 221.35 32.34 218.94 31.91 217.12 C 31.65 212.10 31.54 207.08 30.94 202.09 C 26.55 200.87 30.48 207.94 27.85 209.88 C 25.25 212.78 23.51 216.31 23.70 220.29 L 23.29 219.62 C 22.92 218.67 22.54 217.73 22.17 216.79 C 22.01 216.36 21.68 215.49 21.52 215.05 C 24.33 210.16 30.28 206.74 28.10 200.08 Z" />
<path fill="#fffba7" d=" M 131.75 209.84 C 132.45 206.30 130.88 200.27 135.83 199.95 C 137.20 201.33 136.79 203.36 137.01 205.11 C 136.29 204.78 135.16 201.88 134.67 203.60 C 131.10 210.06 134.52 223.60 124.01 222.93 C 124.00 221.72 123.98 220.52 123.96 219.31 C 127.53 217.13 129.87 213.49 131.75 209.84 Z" />
<path fill="#fec142" d=" M 208.17 199.75 C 211.18 202.42 212.06 207.91 212.79 211.91 C 209.13 212.26 211.00 217.84 206.86 217.40 C 205.91 213.94 208.11 206.16 202.79 208.69 C 203.40 207.80 204.08 206.97 204.75 206.12 C 206.38 204.30 207.55 202.12 208.17 199.75 Z" />
<path fill="#fffdac" d=" M 222.92 201.84 C 223.56 201.17 224.22 200.52 224.91 199.89 C 225.64 199.88 227.11 199.87 227.84 199.86 C 223.94 204.34 220.08 213.26 227.97 215.85 C 225.61 216.51 223.40 217.60 221.02 218.17 C 220.59 212.62 221.85 207.22 222.92 201.84 Z" />
<path fill="#e58b24" d=" M 27.85 209.88 C 30.48 207.94 26.55 200.87 30.94 202.09 C 31.54 207.08 31.65 212.10 31.91 217.12 C 29.52 208.43 24.74 217.46 24.69 222.17 C 24.45 221.70 23.95 220.76 23.70 220.29 C 23.51 216.31 25.25 212.78 27.85 209.88 Z" />
<path fill="#ab1a0b" d=" M 91.12 201.74 C 97.95 204.85 96.95 214.14 101.69 219.30 C 101.75 220.78 101.89 223.76 101.96 225.24 C 96.23 223.37 95.38 216.18 91.94 212.01 C 91.30 208.63 91.12 205.17 91.12 201.74 Z" />
<path fill="#e4b54c" d=" M 167.75 203.85 C 171.60 198.81 172.06 209.40 172.93 211.19 C 173.58 214.34 175.48 219.05 179.24 215.87 C 178.57 217.28 177.87 218.67 177.11 220.04 C 174.15 221.35 173.64 224.22 173.84 227.19 L 173.12 226.80 C 172.86 225.84 172.60 224.88 172.33 223.93 C 171.93 220.68 169.86 218.32 167.28 216.54 C 167.15 212.30 167.54 208.07 167.75 203.85 Z" />
<path fill="#fffff3" d=" M 134.67 203.60 C 135.16 201.88 136.29 204.78 137.01 205.11 C 137.37 210.15 138.79 215.03 139.99 219.91 C 137.28 228.77 151.72 239.12 141.98 245.34 C 138.14 241.10 142.26 250.58 138.16 248.86 C 136.96 242.92 137.58 236.74 136.13 230.86 C 135.71 228.05 132.50 225.31 130.68 228.71 C 128.98 235.17 130.97 242.41 131.26 249.18 C 129.47 252.71 123.44 251.09 123.59 256.00 L 121.02 256.00 C 118.26 244.82 122.52 233.93 124.01 222.93 C 134.52 223.60 131.10 210.06 134.67 203.60 Z" />
<path fill="#db8d27" d=" M 196.71 205.74 C 198.18 200.96 202.19 204.39 204.75 206.12 C 204.08 206.97 203.40 207.80 202.79 208.69 C 201.39 210.86 200.66 213.38 199.67 215.75 L 199.42 216.37 C 200.11 212.27 194.12 209.61 196.71 205.74 Z" />
<path fill="#67360e" d=" M 0.00 203.56 C 2.95 216.68 6.02 229.84 8.23 243.11 C 7.43 244.22 6.52 245.25 5.64 246.32 L 4.93 245.91 C 5.80 235.08 3.69 223.55 0.00 213.47 L 0.00 203.56 Z" />
<path fill="#d08327" d=" M 165.11 220.88 C 165.81 215.18 165.55 209.22 167.75 203.85 C 167.54 208.07 167.15 212.30 167.28 216.54 C 169.86 218.32 171.93 220.68 172.33 223.93 C 170.85 220.90 168.29 220.08 165.11 220.88 Z" />
<path fill="#fd8328" d=" M 231.06 221.22 C 235.39 216.21 234.84 210.19 234.83 203.87 C 235.55 207.49 234.24 212.86 238.01 214.96 C 238.56 215.28 239.66 215.92 240.21 216.23 C 238.74 216.70 237.27 217.13 235.86 217.76 C 234.42 218.67 233.26 220.08 232.79 221.73 C 230.97 230.54 228.27 239.23 226.80 248.09 C 224.17 240.44 221.77 231.92 223.71 223.82 C 223.62 219.96 232.82 222.13 228.27 227.10 C 231.17 227.10 230.57 223.22 231.06 221.22 Z" />
<path fill="#fffc8e" d=" M 55.26 204.77 C 60.25 209.49 67.18 214.84 74.88 213.25 C 79.91 221.96 81.50 231.22 80.26 241.41 C 79.57 242.31 78.87 243.21 78.15 244.09 C 69.17 240.25 69.15 251.88 73.07 256.00 L 66.88 256.00 C 65.94 245.96 68.36 235.67 65.10 225.88 C 64.24 222.51 63.35 219.10 61.82 215.97 C 58.79 215.34 57.87 218.71 55.98 220.29 C 50.17 216.66 57.77 209.86 55.26 204.77 Z" />
<path fill="#ee8021" d=" M 151.24 204.85 C 159.36 207.70 153.33 217.79 154.07 223.88 L 153.11 224.07 C 153.33 222.49 153.69 209.99 150.07 216.14 C 150.00 214.70 149.93 213.26 149.87 211.82 C 149.93 211.41 150.05 210.58 150.11 210.17 C 150.39 208.84 150.95 206.18 151.24 204.85 Z" />
<path fill="#bf2f10" d=" M 189.71 206.68 C 193.79 203.87 194.84 210.20 196.40 212.66 C 200.13 216.50 194.86 220.58 193.24 224.28 C 191.34 226.12 189.36 229.11 186.28 227.84 C 182.79 225.64 184.31 221.09 183.65 217.62 C 185.11 213.73 186.58 209.56 189.71 206.68 Z" />
<path fill="#ffc239" d=" M 212.79 211.91 C 217.92 213.63 218.11 209.24 219.87 205.81 C 219.24 208.85 219.95 212.52 217.81 215.00 C 215.64 215.33 213.26 214.17 212.79 211.91 Z" />
<path fill="#fd952b" d=" M 118.09 207.70 C 118.36 208.00 118.89 208.60 119.16 208.90 C 119.87 222.41 113.07 235.09 115.12 248.68 C 116.78 251.27 117.31 248.47 117.97 246.81 C 117.88 248.73 118.28 252.78 115.18 251.92 C 112.86 245.30 114.13 238.01 114.49 231.13 C 112.25 229.78 109.31 228.99 108.90 225.97 C 108.93 225.47 108.99 224.45 109.02 223.95 C 109.99 225.56 112.25 228.63 113.76 225.74 C 115.59 219.82 116.56 213.69 118.09 207.70 Z" />
<path fill="#851208" d=" M 190.24 208.15 C 198.96 206.61 191.23 231.17 185.14 222.70 C 184.01 217.39 186.56 211.86 190.24 208.15 Z" />
<path fill="#fde56c" d=" M 202.79 208.69 C 208.11 206.16 205.91 213.94 206.86 217.40 C 205.54 215.53 204.37 213.56 202.96 211.76 C 198.66 215.36 206.18 219.65 203.32 224.02 C 202.83 220.96 200.54 218.67 199.67 215.75 C 200.66 213.38 201.39 210.86 202.79 208.69 Z" />
<path fill="#fe461f" d=" M 119.16 208.90 C 119.96 210.45 120.20 212.43 121.86 213.37 C 122.06 216.34 122.19 219.28 122.34 222.27 C 121.46 230.55 120.03 238.74 117.97 246.81 C 117.31 248.47 116.78 251.27 115.12 248.68 C 113.07 235.09 119.87 222.41 119.16 208.90 Z" />
<path fill="#f26f22" d=" M 83.11 209.92 C 86.75 209.26 88.17 213.15 89.15 215.88 C 87.55 214.76 85.96 213.61 84.20 212.74 C 84.17 222.20 82.61 231.59 83.03 241.06 C 83.52 241.02 84.50 240.92 84.99 240.88 C 91.07 238.41 86.04 247.41 86.47 250.23 C 86.72 244.37 79.47 241.36 81.90 235.03 C 81.92 226.65 81.75 218.21 83.11 209.92 Z" />
<path fill="#fe932e" d=" M 37.21 211.05 C 40.04 210.29 40.66 213.30 41.77 215.17 C 42.73 220.26 47.65 216.21 50.91 216.13 C 52.45 219.38 54.73 222.37 55.20 226.04 C 53.80 224.95 52.52 223.73 51.08 222.69 C 51.37 227.48 53.05 231.97 54.15 236.59 C 53.37 238.41 52.63 240.50 50.23 240.09 C 53.43 228.91 46.17 238.37 42.89 233.97 C 42.63 229.93 41.10 225.70 42.85 221.83 C 43.32 224.49 41.49 233.20 46.90 231.99 C 54.10 230.02 49.18 213.38 42.85 221.83 C 43.01 216.76 38.22 212.83 36.01 219.16 C 36.07 216.41 36.34 213.66 37.21 211.05 Z" />
<path fill="#d6a92f" d=" M 3.07 211.77 C 8.25 217.98 8.89 226.92 11.68 234.29 C 12.20 236.03 12.61 237.91 13.79 239.35 C 15.23 239.87 16.72 240.23 18.20 240.62 C 17.10 241.40 15.99 242.20 14.97 243.09 C 16.01 249.36 8.96 247.99 5.64 246.32 C 6.52 245.25 7.43 244.22 8.23 243.11 C 10.48 232.70 3.96 222.26 3.07 211.77 Z" />
<path fill="#edb236" d=" M 179.24 215.87 C 180.17 214.43 181.11 212.99 182.05 211.55 C 182.35 213.24 182.94 216.62 183.24 218.30 C 182.98 218.77 182.47 219.71 182.21 220.19 C 182.34 218.07 181.40 216.31 179.24 215.87 Z" />
<path fill="#fff7a7" d=" M 203.32 224.02 C 206.18 219.65 198.66 215.36 202.96 211.76 C 204.37 213.56 205.54 215.53 206.86 217.40 C 208.76 220.26 208.88 223.53 208.17 226.79 C 212.25 231.43 213.95 222.47 213.34 219.81 C 216.85 220.82 218.23 224.84 220.76 227.15 C 221.29 233.92 222.77 240.55 224.69 247.06 C 223.86 250.03 222.13 252.83 221.72 256.00 L 217.43 256.00 C 216.21 251.66 213.04 248.16 212.24 243.66 C 214.85 245.64 216.19 248.68 218.03 251.29 C 225.15 245.64 219.38 236.09 218.17 228.88 C 217.16 226.91 217.28 222.69 214.34 223.03 C 214.00 229.82 208.14 235.84 211.19 242.68 C 207.77 241.03 202.35 242.24 201.27 237.69 C 200.67 233.38 202.88 229.19 203.20 224.88 L 203.32 224.02 Z" />
<path fill="#a05719" d=" M 249.18 211.65 C 251.44 214.70 251.31 219.56 256.00 220.21 L 256.00 224.27 C 253.13 221.67 250.72 218.30 247.01 216.83 C 247.42 216.01 247.80 215.18 248.17 214.35 C 248.43 213.68 248.93 212.33 249.18 211.65 Z" />
<path fill="#fff45d" d=" M 24.69 222.17 C 24.74 217.46 29.52 208.43 31.91 217.12 C 32.34 218.94 34.40 221.35 36.01 219.16 C 38.22 212.83 43.01 216.76 42.85 221.83 C 41.10 225.70 42.63 229.93 42.89 233.97 C 41.23 241.07 52.37 231.51 49.54 240.57 C 52.28 245.33 54.10 249.66 53.00 256.00 L 50.84 256.00 C 49.15 251.36 48.68 246.41 47.34 241.69 C 36.77 242.02 42.70 227.90 40.77 221.74 C 41.40 217.82 37.00 221.54 35.52 222.53 C 32.41 225.35 30.64 217.19 28.27 221.27 C 25.47 228.09 28.50 235.70 29.17 242.75 C 29.23 247.18 29.48 251.60 30.04 256.00 L 29.10 256.00 C 28.44 250.11 29.02 243.75 25.64 238.59 C 24.70 234.09 26.89 229.21 25.37 224.73 C 25.20 224.09 24.86 222.81 24.69 222.17 Z" />
<path fill="#e72a11" d=" M 84.20 212.74 C 85.96 213.61 87.55 214.76 89.15 215.88 C 89.33 218.61 89.74 221.33 90.04 224.05 C 88.64 229.71 88.00 235.75 84.99 240.88 C 84.50 240.92 83.52 241.02 83.03 241.06 C 82.61 231.59 84.17 222.20 84.20 212.74 Z" />
<path fill="#3e1407" d=" M 0.00 213.47 C 3.69 223.55 5.80 235.08 4.93 245.91 C 3.71 249.22 2.58 252.57 1.75 256.00 L 0.00 256.00 L 0.00 213.47 Z" />
<path fill="#691207" d=" M 11.78 215.34 C 12.29 215.01 13.31 214.33 13.82 214.00 C 15.47 218.82 19.28 217.86 20.92 213.68 C 21.07 214.02 21.37 214.71 21.52 215.05 C 21.68 215.49 22.01 216.36 22.17 216.79 C 20.79 222.97 23.23 232.07 16.86 235.58 C 12.83 229.76 15.10 221.62 11.78 215.34 Z" />
<path fill="#e97a23" d=" M 100.27 228.81 C 107.40 229.71 98.92 216.19 105.82 213.99 C 108.11 216.09 108.74 219.25 108.87 222.22 C 107.31 220.37 106.37 217.84 104.13 216.67 C 103.22 229.81 104.64 242.89 105.12 256.00 L 104.30 256.00 C 104.64 250.67 97.00 248.84 98.36 243.57 C 100.66 236.79 99.18 223.97 90.04 224.05 C 89.74 221.33 89.33 218.61 89.15 215.88 C 89.83 220.05 94.14 223.44 93.15 216.84 C 95.18 221.01 97.42 225.14 100.27 228.81 Z" />
<path fill="#fff769" d=" M 150.07 216.14 C 153.69 209.99 153.33 222.49 153.11 224.07 C 152.28 227.29 151.33 230.49 150.78 233.77 C 149.77 239.47 150.22 245.27 149.87 251.02 C 146.15 253.82 139.18 245.42 140.02 253.11 C 139.98 253.83 139.88 255.28 139.83 256.00 L 138.95 256.00 C 138.24 253.87 137.62 251.72 136.93 249.59 C 135.55 245.11 138.98 235.69 133.96 234.98 C 134.46 242.12 135.13 249.10 132.71 256.00 L 123.59 256.00 C 123.44 251.09 129.47 252.71 131.26 249.18 C 134.38 243.67 130.88 237.17 131.21 231.28 C 132.05 229.02 134.50 230.48 136.13 230.86 C 137.58 236.74 136.96 242.92 138.16 248.86 C 142.26 250.58 138.14 241.10 141.98 245.34 C 142.58 246.41 144.16 249.24 145.32 247.40 C 147.58 240.78 146.16 233.96 143.02 228.00 C 145.37 229.02 147.94 229.44 148.06 226.11 C 148.91 222.83 149.51 219.48 150.07 216.14 Z" />
<path fill="#ab1809" d=" M 157.79 228.86 C 161.14 224.56 162.27 218.95 164.18 213.96 C 164.08 223.73 158.52 232.17 153.61 240.23 C 150.44 235.35 154.39 229.32 154.07 223.88 L 155.02 224.15 C 155.06 226.51 154.15 230.38 157.79 228.86 Z" />
<path fill="#fead46" d=" M 141.09 215.90 C 143.46 218.70 142.40 229.23 148.06 226.11 C 147.94 229.44 145.37 229.02 143.02 228.00 C 142.23 225.39 141.66 222.73 140.96 220.10 C 141.01 218.70 141.05 217.30 141.09 215.90 Z" />
<path fill="#fef565" d=" M 179.24 215.87 C 181.40 216.31 182.34 218.07 182.21 220.19 C 182.19 224.20 182.46 228.72 185.22 231.93 C 189.70 233.22 191.57 228.12 194.03 225.47 C 195.99 226.69 196.15 229.18 197.20 231.06 C 200.34 230.76 201.29 226.93 203.20 224.88 C 202.88 229.19 200.67 233.38 201.27 237.69 C 202.35 242.24 207.77 241.03 211.19 242.68 C 211.45 242.93 211.98 243.42 212.24 243.66 C 213.04 248.16 216.21 251.66 217.43 256.00 L 213.28 256.00 C 212.61 254.29 211.96 252.57 211.28 250.87 C 210.65 248.45 209.15 242.72 205.82 244.80 C 202.30 248.13 201.39 239.21 197.30 241.17 C 192.73 244.46 195.73 251.14 194.98 256.00 L 194.05 256.00 C 193.24 251.46 195.81 245.60 191.96 242.02 C 190.33 239.34 190.30 234.64 186.15 234.84 C 179.98 232.23 180.75 224.68 179.88 219.19 C 178.95 219.45 178.02 219.73 177.11 220.04 C 177.87 218.67 178.57 217.28 179.24 215.87 Z" />
<path fill="#fec543" d=" M 199.42 216.37 L 199.67 215.75 C 200.54 218.67 202.83 220.96 203.32 224.02 L 203.20 224.88 C 201.29 226.93 200.34 230.76 197.20 231.06 C 196.15 229.18 195.99 226.69 194.03 225.47 C 194.04 225.11 194.05 224.38 194.06 224.02 C 196.87 222.32 198.60 219.50 199.42 216.37 Z" />
<path fill="#aa591a" d=" M 240.21 216.23 C 242.47 216.46 244.73 216.77 247.01 216.83 C 242.99 222.97 252.12 222.29 253.35 226.72 C 252.47 230.25 254.29 234.92 251.80 238.00 C 248.47 238.58 248.10 234.42 246.22 232.62 C 246.14 234.44 245.99 238.08 245.91 239.90 C 245.60 245.36 246.68 250.73 248.00 256.00 L 246.03 256.00 C 244.90 246.29 244.98 236.51 244.82 226.76 C 244.74 223.91 246.09 220.32 243.20 218.62 C 240.76 218.25 238.31 217.97 235.86 217.76 C 237.27 217.13 238.74 216.70 240.21 216.23 Z" />
<path fill="#9a1209" d=" M 22.17 216.79 C 22.54 217.73 22.92 218.67 23.29 219.62 C 23.05 225.48 23.24 231.41 22.07 237.19 C 20.76 237.78 19.43 238.36 18.04 238.75 C 17.66 237.68 17.26 236.63 16.86 235.58 C 23.23 232.07 20.79 222.97 22.17 216.79 Z" />
<path fill="#f9bc41" d=" M 104.13 216.67 C 106.37 217.84 107.31 220.37 108.87 222.22 C 108.91 222.65 108.98 223.52 109.02 223.95 C 108.99 224.45 108.93 225.47 108.90 225.97 C 107.97 225.57 107.03 225.21 106.07 224.89 C 105.87 235.26 106.00 245.63 106.05 256.00 L 105.12 256.00 C 104.64 242.89 103.22 229.81 104.13 216.67 Z" />
<path fill="#d6b53f" d=" M 247.01 216.83 C 250.72 218.30 253.13 221.67 256.00 224.27 L 256.00 233.46 C 255.18 231.19 254.41 228.89 253.35 226.72 C 252.12 222.29 242.99 222.97 247.01 216.83 Z" />
<path fill="#ffffef" d=" M 67.27 218.11 C 72.67 216.47 75.52 217.95 75.96 222.95 C 77.31 226.30 79.30 230.52 76.70 233.71 C 74.00 235.00 70.14 240.49 68.11 235.88 C 68.22 229.90 64.85 223.87 67.27 218.11 Z" />
<path fill="#fa6524" d=" M 183.24 218.30 L 183.65 217.62 C 184.31 221.09 182.79 225.64 186.28 227.84 C 189.36 229.11 191.34 226.12 193.24 224.28 L 194.06 224.02 C 194.05 224.38 194.04 225.11 194.03 225.47 C 191.57 228.12 189.70 233.22 185.22 231.93 C 182.46 228.72 182.19 224.20 182.21 220.19 C 182.47 219.71 182.98 218.77 183.24 218.30 Z" />
<path fill="#93250c" d=" M 232.79 221.73 C 233.26 220.08 234.42 218.67 235.86 217.76 C 238.31 217.97 240.76 218.25 243.20 218.62 C 230.92 218.20 233.88 233.89 231.99 242.03 C 231.42 246.67 230.25 251.47 232.01 256.00 L 230.17 256.00 C 226.98 244.39 232.71 233.28 232.79 221.73 Z" />
<path fill="#f73414" d=" M 42.85 221.83 C 49.18 213.38 54.10 230.02 46.90 231.99 C 41.49 233.20 43.32 224.49 42.85 221.83 Z" />
<path fill="#fff46f" d=" M 122.97 218.93 L 123.96 219.31 C 123.98 220.52 124.00 221.72 124.01 222.93 C 122.52 233.93 118.26 244.82 121.02 256.00 L 113.07 256.00 C 111.30 248.87 116.09 235.38 108.20 232.01 C 107.01 239.90 105.28 248.65 109.20 256.00 L 106.05 256.00 C 106.00 245.63 105.87 235.26 106.07 224.89 C 107.03 225.21 107.97 225.57 108.90 225.97 C 109.31 228.99 112.25 229.78 114.49 231.13 C 114.13 238.01 112.86 245.30 115.18 251.92 C 118.28 252.78 117.88 248.73 117.97 246.81 C 120.03 238.74 121.46 230.55 122.34 222.27 C 122.56 221.16 122.77 220.05 122.97 218.93 Z" />
<path fill="#fffbc4" d=" M 177.11 220.04 C 178.02 219.73 178.95 219.45 179.88 219.19 C 180.75 224.68 179.98 232.23 186.15 234.84 C 182.13 233.80 177.76 233.29 176.86 238.42 C 175.62 234.74 173.95 231.14 173.84 227.19 C 173.64 224.22 174.15 221.35 177.11 220.04 Z" />
<path fill="#f7b14b" d=" M 223.22 219.07 C 226.41 217.69 228.03 222.20 231.06 221.22 C 230.57 223.22 231.17 227.10 228.27 227.10 C 232.82 222.13 223.62 219.96 223.71 223.82 C 221.77 231.92 224.17 240.44 226.80 248.09 C 227.85 250.64 228.65 253.30 229.26 256.00 L 221.72 256.00 C 222.13 252.83 223.86 250.03 224.69 247.06 C 222.77 240.55 221.29 233.92 220.76 227.15 C 220.88 224.31 221.12 221.22 223.22 219.07 Z" />
<path fill="#4a0603" d=" M 231.99 242.03 C 233.88 233.89 230.92 218.20 243.20 218.62 C 246.09 220.32 244.74 223.91 244.82 226.76 C 243.38 236.45 244.08 246.25 244.33 256.00 L 232.01 256.00 C 230.25 251.47 231.42 246.67 231.99 242.03 Z" />
<path fill="#f01e12" d=" M 23.29 219.62 L 23.70 220.29 C 23.95 220.76 24.45 221.70 24.69 222.17 C 24.86 222.81 25.20 224.09 25.37 224.73 C 24.25 228.27 27.00 235.44 22.07 237.19 C 23.24 231.41 23.05 225.48 23.29 219.62 Z" />
<path fill="#fffff5" d=" M 28.27 221.27 C 30.64 217.19 32.41 225.35 35.52 222.53 C 37.00 221.54 41.40 217.82 40.77 221.74 C 38.41 227.07 44.43 243.62 34.05 240.10 C 31.40 241.00 32.65 246.12 31.81 248.89 C 28.39 249.92 29.96 244.94 29.17 242.75 C 28.50 235.70 25.47 228.09 28.27 221.27 Z" />
<path fill="#fffdb3" d=" M 139.99 219.91 L 140.96 220.10 C 141.66 222.73 142.23 225.39 143.02 228.00 C 146.16 233.96 147.58 240.78 145.32 247.40 C 144.16 249.24 142.58 246.41 141.98 245.34 C 151.72 239.12 137.28 228.77 139.99 219.91 Z" />
<path fill="#ffff8b" d=" M 34.05 240.10 C 44.43 243.62 38.41 227.07 40.77 221.74 C 42.70 227.90 36.77 242.02 47.34 241.69 C 48.68 246.41 49.15 251.36 50.84 256.00 L 48.98 256.00 C 45.84 252.80 49.66 244.15 44.27 245.19 C 42.39 248.52 41.84 252.35 40.86 256.00 L 30.04 256.00 C 29.48 251.60 29.23 247.18 29.17 242.75 C 29.96 244.94 28.39 249.92 31.81 248.89 C 32.65 246.12 31.40 241.00 34.05 240.10 Z" />
<path fill="#cf5318" d=" M 226.80 248.09 C 228.27 239.23 230.97 230.54 232.79 221.73 C 232.71 233.28 226.98 244.39 230.17 256.00 L 229.26 256.00 C 228.65 253.30 227.85 250.64 226.80 248.09 Z" />
<path fill="#ffffbc" d=" M 75.96 222.95 C 81.59 225.99 80.19 235.31 76.82 239.95 C 73.09 238.01 66.01 242.62 68.11 235.88 C 70.14 240.49 74.00 235.00 76.70 233.71 C 79.30 230.52 77.31 226.30 75.96 222.95 Z" />
<path fill="#fffff2" d=" M 214.34 223.03 C 217.28 222.69 217.16 226.91 218.17 228.88 C 219.38 236.09 225.15 245.64 218.03 251.29 C 216.19 248.68 214.85 245.64 212.24 243.66 C 211.98 243.42 211.45 242.93 211.19 242.68 C 208.14 235.84 214.00 229.82 214.34 223.03 Z" />
<path fill="#cb3f13" d=" M 90.04 224.05 C 99.18 223.97 100.66 236.79 98.36 243.57 C 97.00 248.84 104.64 250.67 104.30 256.00 L 102.49 256.00 C 96.55 252.66 94.16 247.69 96.46 240.53 C 97.47 237.33 97.67 229.16 92.30 230.00 C 91.21 238.79 89.09 247.43 86.91 256.00 L 85.05 256.00 C 85.67 254.12 86.11 252.18 86.47 250.23 C 86.04 247.41 91.07 238.41 84.99 240.88 C 88.00 235.75 88.64 229.71 90.04 224.05 Z" />
<path fill="#ef3515" d=" M 153.11 224.07 L 154.07 223.88 C 154.39 229.32 150.44 235.35 153.61 240.23 C 153.36 241.79 153.17 243.36 152.98 244.94 C 152.49 245.26 151.51 245.91 151.02 246.24 C 150.89 242.08 150.80 237.92 150.78 233.77 C 151.33 230.49 152.28 227.29 153.11 224.07 Z" />
<path fill="#e37823" d=" M 172.33 223.93 C 172.60 224.88 172.86 225.84 173.12 226.80 C 172.84 229.95 171.08 233.57 173.75 236.17 C 175.79 242.54 176.85 249.37 178.20 256.00 L 177.13 256.00 C 175.43 250.09 175.21 243.66 172.83 238.00 C 168.58 238.77 167.98 245.37 165.78 248.91 C 164.40 251.24 163.17 253.65 161.82 256.00 L 157.59 256.00 C 162.86 245.51 172.05 236.35 172.33 223.93 Z" />
<path fill="#f56423" d=" M 25.37 224.73 C 26.89 229.21 24.70 234.09 25.64 238.59 C 29.02 243.75 28.44 250.11 29.10 256.00 L 27.13 256.00 C 26.95 250.30 27.97 238.46 18.20 240.62 C 16.72 240.23 15.23 239.87 13.79 239.35 C 15.22 239.20 16.63 239.00 18.04 238.75 C 19.43 238.36 20.76 237.78 22.07 237.19 C 27.00 235.44 24.25 228.27 25.37 224.73 Z" />
<path fill="#febf44" d=" M 59.73 234.36 C 59.87 231.06 60.25 223.01 65.10 225.88 C 68.36 235.67 65.94 245.96 66.88 256.00 L 65.29 256.00 C 64.89 254.00 64.41 252.03 63.81 250.09 C 65.39 243.83 66.93 237.38 64.85 230.97 C 58.81 231.29 62.53 241.18 61.12 242.73 C 52.81 236.77 53.38 250.91 53.95 256.00 L 53.00 256.00 C 54.10 249.66 52.28 245.33 49.54 240.57 C 52.37 231.51 41.23 241.07 42.89 233.97 C 46.17 238.37 53.43 228.91 50.23 240.09 C 52.63 240.50 53.37 238.41 54.15 236.59 C 55.30 241.75 61.52 238.72 59.73 234.36 Z" />
<path fill="#ab1a0a" d=" M 167.23 225.17 C 169.68 224.48 172.13 224.82 170.85 227.90 C 168.36 234.85 165.36 245.55 157.98 247.01 C 158.87 239.27 162.61 231.35 167.23 225.17 Z" />
<path fill="#ffffa5" d=" M 130.68 228.71 C 132.50 225.31 135.71 228.05 136.13 230.86 C 134.50 230.48 132.05 229.02 131.21 231.28 C 130.88 237.17 134.38 243.67 131.26 249.18 C 130.97 242.41 128.98 235.17 130.68 228.71 Z" />
<path fill="#ffec61" d=" M 173.12 226.80 L 173.84 227.19 C 173.95 231.14 175.62 234.74 176.86 238.42 C 178.11 244.43 179.60 250.43 182.24 256.00 L 178.20 256.00 C 176.85 249.37 175.79 242.54 173.75 236.17 C 171.08 233.57 172.84 229.95 173.12 226.80 Z" />
<path fill="#732d0e" d=" M 244.33 256.00 C 244.08 246.25 243.38 236.45 244.82 226.76 C 244.98 236.51 244.90 246.29 246.03 256.00 L 244.33 256.00 Z" />
<path fill="#b28d2f" d=" M 253.35 226.72 C 254.41 228.89 255.18 231.19 256.00 233.46 L 256.00 248.44 C 249.98 249.00 251.07 237.92 245.91 239.90 C 245.99 238.08 246.14 234.44 246.22 232.62 C 248.10 234.42 248.47 238.58 251.80 238.00 C 254.29 234.92 252.47 230.25 253.35 226.72 Z" />
<path fill="#980e06" d=" M 92.30 230.00 C 97.67 229.16 97.47 237.33 96.46 240.53 C 94.16 247.69 96.55 252.66 102.49 256.00 L 86.91 256.00 C 89.09 247.43 91.21 238.79 92.30 230.00 Z" />
<path fill="#ff7829" d=" M 61.12 242.73 C 62.53 241.18 58.81 231.29 64.85 230.97 C 66.93 237.38 65.39 243.83 63.81 250.09 C 62.72 246.84 60.34 244.12 57.06 242.99 C 55.77 247.19 56.25 251.67 55.89 256.00 L 53.95 256.00 C 53.38 250.91 52.81 236.77 61.12 242.73 Z" />
<path fill="#fffff0" d=" M 108.20 232.01 C 116.09 235.38 111.30 248.87 113.07 256.00 L 109.20 256.00 C 105.28 248.65 107.01 239.90 108.20 232.01 Z" />
<path fill="#fbb942" d=" M 149.87 251.02 C 150.22 245.27 149.77 239.47 150.78 233.77 C 150.80 237.92 150.89 242.08 151.02 246.24 C 151.07 249.62 152.83 252.66 153.18 256.00 L 145.34 256.00 C 143.94 254.29 141.52 248.68 140.02 253.11 C 139.18 245.42 146.15 253.82 149.87 251.02 Z" />
<path fill="#fffff7" d=" M 176.86 238.42 C 177.76 233.29 182.13 233.80 186.15 234.84 C 190.30 234.64 190.33 239.34 191.96 242.02 C 192.71 246.64 192.89 251.32 193.10 256.00 L 182.24 256.00 C 179.60 250.43 178.11 244.43 176.86 238.42 Z" />
<path fill="#fec74c" d=" M 133.96 234.98 C 138.98 235.69 135.55 245.11 136.93 249.59 C 134.43 250.67 134.47 253.77 133.69 256.00 L 132.71 256.00 C 135.13 249.10 134.46 242.12 133.96 234.98 Z" />
<path fill="#f13314" d=" M 165.78 248.91 C 167.98 245.37 168.58 238.77 172.83 238.00 C 175.21 243.66 175.43 250.09 177.13 256.00 L 174.18 256.00 C 173.48 252.33 173.89 247.79 171.13 244.84 C 169.29 246.12 167.59 247.59 165.78 248.91 Z" />
<path fill="#c5a93b" d=" M 245.91 239.90 C 251.07 237.92 249.98 249.00 256.00 248.44 L 256.00 256.00 L 248.00 256.00 C 246.68 250.73 245.60 245.36 245.91 239.90 Z" />
<path fill="#ad1f0e" d=" M 14.97 243.09 C 15.99 242.20 17.10 241.40 18.20 240.62 C 27.97 238.46 26.95 250.30 27.13 256.00 L 26.17 256.00 C 25.33 251.21 25.75 243.21 20.09 242.07 C 16.08 242.57 14.89 246.43 15.71 250.21 C 15.41 247.83 15.17 245.46 14.97 243.09 Z" />
<path fill="#f0c87e" d=" M 80.26 241.41 L 80.81 240.84 C 82.86 245.89 86.31 250.14 83.93 256.00 L 80.05 256.00 C 79.94 252.01 80.96 247.42 78.15 244.09 C 78.87 243.21 79.57 242.31 80.26 241.41 Z" />
<path fill="#ffa73a" d=" M 197.30 241.17 C 201.39 239.21 202.30 248.13 205.82 244.80 C 209.15 242.72 210.65 248.45 211.28 250.87 C 209.64 249.28 208.30 245.60 205.49 247.34 C 204.41 249.02 203.77 251.43 201.27 251.11 C 201.18 248.71 202.00 241.49 197.22 243.05 C 194.44 246.49 196.69 251.83 195.96 256.00 L 194.98 256.00 C 195.73 251.14 192.73 244.46 197.30 241.17 Z" />
<path fill="#5e0904" d=" M 15.71 250.21 C 14.89 246.43 16.08 242.57 20.09 242.07 C 25.75 243.21 25.33 251.21 26.17 256.00 L 16.10 256.00 C 15.99 254.06 15.87 252.13 15.71 250.21 Z" />
<path fill="#ffffa9" d=" M 191.96 242.02 C 195.81 245.60 193.24 251.46 194.05 256.00 L 193.10 256.00 C 192.89 251.32 192.71 246.64 191.96 242.02 Z" />
<path fill="#a36e1c" d=" M 5.64 246.32 C 8.96 247.99 16.01 249.36 14.97 243.09 C 15.17 245.46 15.41 247.83 15.71 250.21 C 15.87 252.13 15.99 254.06 16.10 256.00 L 12.30 256.00 C 11.83 253.40 11.64 250.14 9.00 248.74 C 6.26 250.16 5.73 253.39 4.71 256.00 L 1.75 256.00 C 2.58 252.57 3.71 249.22 4.93 245.91 L 5.64 246.32 Z" />
<path fill="#f32712" d=" M 57.06 242.99 C 60.34 244.12 62.72 246.84 63.81 250.09 C 64.41 252.03 64.89 254.00 65.29 256.00 L 55.89 256.00 C 56.25 251.67 55.77 247.19 57.06 242.99 Z" />
<path fill="#ff7328" d=" M 197.22 243.05 C 202.00 241.49 201.18 248.71 201.27 251.11 C 203.77 251.43 204.41 249.02 205.49 247.34 C 208.30 245.60 209.64 249.28 211.28 250.87 C 211.96 252.57 212.61 254.29 213.28 256.00 L 211.42 256.00 C 210.11 253.60 208.96 249.03 205.34 250.18 C 204.32 252.05 203.51 254.03 202.68 256.00 L 195.96 256.00 C 196.69 251.83 194.44 246.49 197.22 243.05 Z" />
<path fill="#fdd54e" d=" M 73.07 256.00 C 69.15 251.88 69.17 240.25 78.15 244.09 C 80.96 247.42 79.94 252.01 80.05 256.00 L 73.07 256.00 Z" />
<path fill="#db7827" d=" M 152.98 244.94 C 159.22 242.07 153.44 252.16 153.90 256.00 L 153.18 256.00 C 152.83 252.66 151.07 249.62 151.02 246.24 C 151.51 245.91 152.49 245.26 152.98 244.94 Z" />
<path fill="#ffffef" d=" M 44.27 245.19 C 49.66 244.15 45.84 252.80 48.98 256.00 L 40.86 256.00 C 41.84 252.35 42.39 248.52 44.27 245.19 Z" />
<path fill="#af1007" d=" M 165.78 248.91 C 167.59 247.59 169.29 246.12 171.13 244.84 C 173.89 247.79 173.48 252.33 174.18 256.00 L 161.82 256.00 C 163.17 253.65 164.40 251.24 165.78 248.91 Z" />
<path fill="#77310f" d=" M 4.71 256.00 C 5.73 253.39 6.26 250.16 9.00 248.74 C 11.64 250.14 11.83 253.40 12.30 256.00 L 4.71 256.00 Z" />
<path fill="#ff7729" d=" M 133.69 256.00 C 134.47 253.77 134.43 250.67 136.93 249.59 C 137.62 251.72 138.24 253.87 138.95 256.00 L 133.69 256.00 Z" />
<path fill="#f93d15" d=" M 205.34 250.18 C 208.96 249.03 210.11 253.60 211.42 256.00 L 202.68 256.00 C 203.51 254.03 204.32 252.05 205.34 250.18 Z" />
<path fill="#ff561d" d=" M 140.02 253.11 C 141.52 248.68 143.94 254.29 145.34 256.00 L 139.83 256.00 C 139.88 255.28 139.98 253.83 140.02 253.11 Z" />
</svg>
